<?xml version="1.0" encoding="UTF-8" standalone="no"?>
<!-- Generator: Adobe Illustrator 19.2.0, SVG Export Plug-In . SVG Version: 6.00 Build 0)  -->

<svg
   xmlns:dc="http://purl.org/dc/elements/1.1/"
   xmlns:cc="http://creativecommons.org/ns#"
   xmlns:rdf="http://www.w3.org/1999/02/22-rdf-syntax-ns#"
   xmlns:svg="http://www.w3.org/2000/svg"
   xmlns="http://www.w3.org/2000/svg"
   xmlns:sodipodi="http://sodipodi.sourceforge.net/DTD/sodipodi-0.dtd"
   xmlns:inkscape="http://www.inkscape.org/namespaces/inkscape"
   version="1.1"
   id="Layer_1"
   x="0px"
   y="0px"
   viewBox="0 0 2406.9673 868.02325"
   xml:space="preserve"
   sodipodi:docname="Man_Doing_Sit_Ups_Cartoon.svg"
   width="2406.9673"
   height="868.02325"
   inkscape:version="0.92.3 (2405546, 2018-03-11)"><metadata
   id="metadata522"><rdf:RDF><cc:Work
       rdf:about=""><dc:format>image/svg+xml</dc:format><dc:type
         rdf:resource="http://purl.org/dc/dcmitype/StillImage" /></cc:Work></rdf:RDF></metadata><defs
   id="defs520" /><sodipodi:namedview
   pagecolor="#ffffff"
   bordercolor="#666666"
   borderopacity="1"
   objecttolerance="10"
   gridtolerance="10"
   guidetolerance="10"
   inkscape:pageopacity="0"
   inkscape:pageshadow="2"
   inkscape:window-width="640"
   inkscape:window-height="480"
   id="namedview518"
   showgrid="false"
   inkscape:zoom="0.16614583"
   inkscape:cx="1831.2236"
   inkscape:cy="461.76927"
   inkscape:window-x="0"
   inkscape:window-y="30"
   inkscape:window-maximized="0"
   inkscape:current-layer="Layer_1" />
<style
   type="text/css"
   id="style89">
	.st0{fill:#F8C09D;}
	.st1{fill:#D3222F;}
	.st2{fill:#F2F2F2;}
	.st3{fill:#FFFFFF;}
	.st4{fill:#F6AE8D;}
	.st5{fill:#754C24;}
	.st6{fill:#EF937E;}
	.st7{fill:#333333;}
	.st8{fill:#BC1E31;}
	.st9{fill:none;stroke:#CCCCCC;stroke-width:2;stroke-miterlimit:10;}
	.st10{fill:#B3B3B3;}
	.st11{fill:#CCCCCC;}
	.st12{fill:#E6E6E6;}
	.st13{fill:#7DA9BC;}
	.st14{fill:#A2D4DB;}
	.st15{fill:#7EBFC4;}
	.st16{fill:#C7EFF2;}
	.st17{fill:none;stroke:#7DA9BC;stroke-width:1.0738;stroke-linecap:round;stroke-miterlimit:10;}
	.st18{fill:none;stroke:#C6556B;stroke-width:1.9329;stroke-linecap:round;stroke-miterlimit:10;}
	.st19{fill:#AF4135;}
	.st20{fill:none;stroke:#333333;stroke-width:3;stroke-miterlimit:10;}
	.st21{fill:#065082;}
	.st22{fill:#1561A0;}
	.st23{fill:#22B573;}
	.st24{fill:#1B965B;}
	.st25{fill:none;stroke:#EF937E;stroke-width:5;stroke-linecap:round;stroke-miterlimit:10;}
	.st26{fill:none;stroke:#E6E6E6;stroke-width:5;stroke-miterlimit:10;}
</style>
<polygon
   class="st0"
   points="-604.3,613 -533.7,613 -543.5,926.4 -578.1,926.4 "
   id="polygon91"
   style="fill:#f8c09d"
   transform="translate(871.22356,-134.24602)" />
<path
   class="st1"
   d="m 330.72356,818.65398 c 0,0 -7.5,-17 -19.3,-17.5 -11.7,-0.5 -17.7,-4.9 -17.7,-4.9 0,0 0.6,7.6 -10.7,17.7 -11.3,10.1 -32.9,20.1 -41.8,34.1 -10.2,15.9 4,21.3 23.1,19.7 22,-1.9 27.5,-6.2 35.8,-15.5 8.3,-9.3 21.4,-5.4 28.6,-10.4 4.6,-3.3 3.9,-12.5 3.9,-15.6 z"
   id="path93"
   inkscape:connector-curvature="0"
   style="fill:#d3222f" />
<path
   class="st2"
   d="m 331.32356,792.15398 c 0.4,-2.8 -2.9,-5 -5.9,-3.8 -3.7,1.4 -8.5,2.6 -13.9,2.4 -6,-0.3 -11.7,-1.5 -15.9,-2.7 -2.9,-0.8 -5.8,0.9 -6.1,3.5 -0.3,2.3 -1.1,5.2 -3.2,8.8 -3.9,6.8 -6,8.8 -14.2,14.9 -7,5.2 -25.8,16.2 -29.9,22.7 -10.2,15.9 -0.2,22.4 19,20.8 22,-1.9 30.6,-7.6 38.9,-16.9 8.3,-9.3 21.4,-5.4 28.6,-10.4 4.6,-3.3 3.9,-12.5 3.9,-15.6 z"
   id="path95"
   inkscape:connector-curvature="0"
   style="fill:#f2f2f2" />
<path
   class="st3"
   d="m 285.82356,830.75398 c -1.2,1.7 -4.1,1.9 -5.5,0.3 -1.7,-1.9 -8.9,-6.6 -11.8,-7.7 -1.6,-0.6 -2.9,-1 -4,-1.2 -2,-0.5 -3,-2.3 -2.2,-4 l 0.2,-0.5 c 0.7,-1.5 2.7,-2.3 4.4,-1.6 4.3,1.5 16.3,7.3 19,11.8 0.6,0.9 0.5,2 -0.1,2.9 z"
   id="path97"
   inkscape:connector-curvature="0"
   style="fill:#ffffff" />
<path
   class="st3"
   d="m 296.02356,822.55398 c -1.2,1.7 -4.1,1.9 -5.5,0.3 -1.7,-1.9 -8.9,-6.6 -11.8,-7.7 -1.6,-0.6 -2.9,-1 -4,-1.2 -2,-0.5 -3,-2.3 -2.2,-4 l 0.2,-0.5 c 0.7,-1.5 2.7,-2.3 4.4,-1.6 4.3,1.5 16.3,7.3 19,11.8 0.6,0.9 0.5,2 -0.1,2.9 z"
   id="path99"
   inkscape:connector-curvature="0"
   style="fill:#ffffff" />
<path
   class="st3"
   d="m 306.32356,813.85398 c -1.2,1.7 -4.1,1.9 -5.5,0.3 -1.7,-1.9 -8.9,-6.6 -11.8,-7.7 -1.6,-0.6 -2.9,-1 -4,-1.2 -2,-0.5 -3,-2.3 -2.2,-4 l 0.2,-0.5 c 0.7,-1.5 2.7,-2.3 4.4,-1.6 4.3,1.5 16.3,7.3 19,11.8 0.6,0.9 0.6,2 -0.1,2.9 z"
   id="path101"
   inkscape:connector-curvature="0"
   style="fill:#ffffff" />
<path
   class="st1"
   d="m 238.92356,852.35398 c 0,0 2,-3.4 8,-2.7 6,0.7 5.6,12.3 5.6,12.3 0,0 -4.3,0.2 -9.5,-3 -5.2,-3.2 -4.1,-6.6 -4.1,-6.6 z"
   id="path103"
   inkscape:connector-curvature="0"
   style="fill:#d3222f" />
<path
   class="st0"
   d="m 590.52356,232.15398 11.3,1.3 3,-25.7 c 0.4,-3.1 -1.9,-5.9 -5,-6.3 v 0 c -3.1,-0.4 -5.9,1.9 -6.3,5 z"
   id="path105"
   inkscape:connector-curvature="0"
   style="fill:#f8c09d" />
<path
   class="st0"
   d="m 646.52356,258.35398 -21.2,21.2 c -5,5 -13,5 -18,0 l -22.7,-22.7 8.1,-43.7 51.9,30.2 c 5.4,3.2 6.3,10.6 1.9,15 z"
   id="path107"
   inkscape:connector-curvature="0"
   style="fill:#f8c09d" />
<rect
   x="265.1236"
   y="478.95401"
   class="st1"
   width="73.800003"
   height="169.60001"
   id="rect109"
   style="fill:#d3222f" />
<polygon
   class="st0"
   points="-444.8,613 -515.4,613 -505.6,926.4 -471,926.4 "
   id="polygon111"
   style="fill:#f8c09d"
   transform="translate(871.22356,-134.24602)" />
<rect
   x="354.42358"
   y="478.95401"
   class="st1"
   width="73.800003"
   height="169.60001"
   id="rect113"
   style="fill:#d3222f" />
<path
   class="st1"
   d="m 347.02356,560.75398 h -1.4 c -45,0 -81.4,-37.2 -81.4,-82.3 v -0.7 h 164 v 0.7 c 0,45.1 -36.1,82.3 -81.2,82.3 z"
   id="path115"
   inkscape:connector-curvature="0"
   style="fill:#d3222f" />
<path
   class="st2"
   d="m 428.42356,478.25398 c 0,0 -26.3,17.5 -85.4,17.5 -59.1,0 -78.9,-17.5 -78.9,-17.5 0,0 -13.1,-37.7 -19.2,-111.1 -6.1,-73.4 0.6,-113.1 0.6,-113.1 -0.7,-8.8 6.2,-16.2 15.1,-16.2 h 171.4 c 8.8,0 15.8,7.4 15.1,16.2 0,0 6.7,40.2 0.6,113.1 -6.1,72.9 -19.3,111.1 -19.3,111.1 z"
   id="path117"
   inkscape:connector-curvature="0"
   style="fill:#f2f2f2" />
<path
   class="st1"
   d="m 309.32356,237.75398 -0.1,2.4 c -0.1,20.2 16,36.7 36,37.2 v 0 c 21,0.5 38,-15.9 38.1,-36.7 l 0.1,-2.8 h -74.1 z"
   id="path119"
   inkscape:connector-curvature="0"
   style="fill:#d3222f" />
<path
   class="st0"
   d="m 345.62356,265.15398 v 0 c -13.3,-0.3 -24,-11.3 -23.9,-24.6 l 0.1,-23.1 49,1.3 -0.1,22.1 c -0.1,13.6 -11.4,24.6 -25.1,24.3 z"
   id="path121"
   inkscape:connector-curvature="0"
   style="fill:#f8c09d" />
<path
   class="st4"
   d="m 321.22356,232.05398 c 7.8,2.8 16.5,4.9 24.7,4.9 8.4,0 16.9,-1 24.9,-3.9 l -0.1,-14.4 -49,-1.3 z"
   id="path123"
   inkscape:connector-curvature="0"
   style="fill:#f6ae8d" />
<path
   class="st0"
   d="m 348.72356,227.15398 c -35.6,-6.3 -66.3,-41 -59.3,-80.7 l 15.8,-88.799996 c 3,-16.9 19.1,-28.1 36,-25.1 l 82,14.6 c 16.9,3 28.1,19.1 25.1,36 l -15.8,88.799996 c -7,39.7 -48.2,61.6 -83.8,55.2 z"
   id="path125"
   inkscape:connector-curvature="0"
   style="fill:#f8c09d" />
<rect
   x="300.34225"
   y="7.3651695"
   transform="rotate(10.131118)"
   class="st5"
   width="17.299862"
   height="41.89967"
   id="rect127"
   style="fill:#754c24;stroke-width:0.99999207" />
<circle
   transform="rotate(-79.909373)"
   class="st0"
   cx="-60.789436"
   cy="310.31458"
   id="ellipse129"
   r="20.699331"
   style="fill:#f8c09d;stroke-width:0.99996763" />
<path
   class="st6"
   d="m 290.22356,116.35398 c 0.7,-4 4.5,-6.6 8.5,-5.9 1.1,0.2 2.1,0.6 2.9,1.2 -0.9,-2.3 -2.9,-4.2 -5.6,-4.6 -4,-0.7 -7.8,1.9 -8.5,5.9 -0.5,2.9 0.7,5.7 3,7.3 -0.4,-1.2 -0.5,-2.6 -0.3,-3.9 z"
   id="path131"
   inkscape:connector-curvature="0"
   style="fill:#ef937e" />
<rect
   x="445.35324"
   y="7.4260077"
   transform="rotate(10.131118)"
   class="st5"
   width="10.699915"
   height="41.89967"
   id="rect133"
   style="fill:#754c24;stroke-width:0.99999207" />
<path
   class="st6"
   d="m 376.52356,137.75398 -2.6,14.7 c -0.1,0.7 0.6,1.3 1.3,1.4 l 8.7,1.5 c 2.4,0.4 4.2,-2.1 3,-4.2 l -7.9,-13.9 c -0.6,-0.8 -2.3,-0.6 -2.5,0.5 z"
   id="path135"
   inkscape:connector-curvature="0"
   style="fill:#ef937e" />
<circle
   transform="rotate(-79.909373)"
   class="st0"
   cx="-60.845734"
   cy="451.59378"
   id="ellipse137"
   r="20.699331"
   style="fill:#f8c09d;stroke-width:0.99996763" />
<path
   class="st6"
   d="m 440.32356,142.65398 c 0.7,-4 -1.9,-7.8 -5.9,-8.5 -1.1,-0.2 -2.2,-0.1 -3.2,0.1 1.6,-1.9 4.2,-2.9 6.8,-2.4 4,0.7 6.6,4.5 5.9,8.5 -0.5,2.9 -2.7,5.1 -5.3,5.8 0.8,-0.9 1.4,-2.1 1.7,-3.5 z"
   id="path139"
   inkscape:connector-curvature="0"
   style="fill:#ef937e" />
<ellipse
   transform="rotate(-80.159963)"
   class="st7"
   cx="-62.431396"
   cy="363.56976"
   rx="8.8001013"
   ry="5.0000572"
   id="ellipse141"
   style="fill:#333333;stroke-width:1.00001144" />
<ellipse
   transform="rotate(-80.159963)"
   class="st7"
   cx="-62.389019"
   cy="427.00931"
   rx="8.8001013"
   ry="5.0000572"
   id="ellipse143"
   style="fill:#333333;stroke-width:1.00001144" />
<rect
   x="265.1236"
   y="621.35394"
   class="st2"
   width="73.800003"
   height="11.1"
   id="rect145"
   style="fill:#f2f2f2" />
<rect
   x="354.42358"
   y="621.35394"
   class="st2"
   width="73.800003"
   height="11.1"
   id="rect147"
   style="fill:#f2f2f2" />
<path
   class="st1"
   d="m 446.72356,87.353984 -152.7,-27.3 v 0 c 7.1,-39.6 44.9,-66.0000005 84.6,-58.9000005 l 9.2,1.6 c 39.6,7.1 66,45.0000005 58.9,84.6000005 z"
   id="path149"
   inkscape:connector-curvature="0"
   style="fill:#d3222f" />
<path
   class="st8"
   d="m 458.42356,107.55398 c 2.2,3.7 -1.7,7.8 -5.9,6.3 -13.5,-5.2 -36.6,-13 -62.6,-17.699996 -23.2,-4.2 -45,-5.1 -59.5,-5.1 -11.3,0 -21.9,-5.9 -27.4,-15.4 l -9.1,-15.7 c 0,0 35.9,-2.3 83.9,6.2 48,8.5 68.8,21.1 68.8,21.1 z"
   id="path151"
   inkscape:connector-curvature="0"
   style="fill:#bc1e31" />
<path
   class="st9"
   d="m 370.82356,237.75398 -26,129.6 c 0,0 -6,-33 -11.8,-64.5 -5.8,-31.5 -11.8,-65.1 -11.8,-65.1"
   id="path153"
   inkscape:connector-curvature="0"
   style="fill:none;stroke:#cccccc;stroke-width:2;stroke-miterlimit:10" />
<path
   class="st10"
   d="m 359.42356,376.75398 c -0.4,-5 -4.8,-9.4 -10.2,-9.4 -5.7,0 -10.2,4.6 -10.2,10.2 0,5.7 4.5,10.2 10.2,10.2 0.7,0 1,-0.1 2,-0.2 l 3,11.2 5,-4.1 z"
   id="path155"
   inkscape:connector-curvature="0"
   style="fill:#b3b3b3" />
<path
   class="st11"
   d="m 354.42356,376.75398 c -0.4,-5 -4.2,-9.4 -8.8,-9.4 -4.9,0 -8.8,4.6 -8.8,10.2 0,5.7 3.9,10.2 8.7,10.2 0.6,0 0.7,-0.1 1.7,-0.2 v 11.2 h 7 z"
   id="path157"
   inkscape:connector-curvature="0"
   style="fill:#cccccc" />
<ellipse
   class="st12"
   cx="345.6236"
   cy="377.85397"
   rx="5.5"
   ry="6.3000002"
   id="ellipse159"
   style="fill:#e6e6e6" />
<path
   class="st0"
   d="m 192.12356,356.85398 94.4,-61.1 -37.1,-55.1 -92.3,63.8 c -14.4,10 -17.9,29.9 -7.7,44.2 v 0 c 9.7,13.7 28.5,17.3 42.7,8.2 z"
   id="path161"
   inkscape:connector-curvature="0"
   style="fill:#f8c09d" />
<path
   class="st0"
   d="m 194.02356,349.55398 v 0 c -7.5,11.8 -23.2,15.2 -34.9,7.5 l -125.400003,-82.3 v 0 l 21.1,-30.3 129.800003,69.6 c 12.9,6.9 17.2,23.2 9.4,35.5 z"
   id="path163"
   inkscape:connector-curvature="0"
   style="fill:#f8c09d" />
<path
   class="st2"
   d="m 224.72356,337.35398 -37.2,-55.6 58.6,-39.2 c 15.3,-10.3 36.1,-6.1 46.4,9.2 v 0 c 10.3,15.3 6.1,36.1 -9.2,46.4 z"
   id="path165"
   inkscape:connector-curvature="0"
   style="fill:#f2f2f2" />
<path
   class="st0"
   d="m 467.42356,380.15398 -60.3,-94.9 56.7,-34.5 57.2,96.5 c 9,15.1 3.8,34.6 -11.4,43.4 v 0 c -14.6,8.2 -33.2,3.6 -42.2,-10.5 z"
   id="path167"
   inkscape:connector-curvature="0"
   style="fill:#f8c09d" />
<path
   class="st0"
   d="m 475.12356,390.05398 v 0 c -9.5,-10.2 -8.9,-26.3 1.5,-35.6 l 111.3,-100.5 c 0,0 0,0 0,0 l 24,28.1 -100.1,108 c -9.9,10.6 -26.8,10.6 -36.7,0 z"
   id="path169"
   inkscape:connector-curvature="0"
   style="fill:#f8c09d" />
<path
   class="st2"
   d="m 445.92356,348.75398 57,-35 -36.9,-60.1 c -9.7,-15.7 -30.2,-20.6 -46,-11 v 0 c -15.7,9.7 -20.6,30.2 -11,46 z"
   id="path171"
   inkscape:connector-curvature="0"
   style="fill:#f2f2f2" />
<g
   id="g185"
   transform="translate(871.22356,-134.24602)">
	<path
   class="st0"
   d="m -827.3,402.8 -6.8,10.9 -34.1,-21.2 c -3,-1.9 -3.9,-5.8 -2.1,-8.8 v 0 c 1.9,-3 5.8,-3.9 8.8,-2.1 z"
   id="path173"
   inkscape:connector-curvature="0"
   style="fill:#f8c09d" />
	<path
   class="st0"
   d="m -820.3,391.4 -7.2,10.7 -40.3,-27 c -2.9,-2 -3.7,-6 -1.8,-8.9 v 0 c 2,-2.9 6,-3.7 8.9,-1.8 z"
   id="path175"
   inkscape:connector-curvature="0"
   style="fill:#f8c09d" />
	<path
   class="st0"
   d="m -817.7,379.1 -8.3,9.8 -37.2,-31.2 c -2.7,-2.3 -3.1,-6.3 -0.8,-9.1 v 0 c 2.3,-2.7 6.3,-3.1 9.1,-0.8 z"
   id="path177"
   inkscape:connector-curvature="0"
   style="fill:#f8c09d" />
	<path
   class="st0"
   d="m -807.3,376.2 -9.9,8.2 -30.8,-37.5 c -2.3,-2.7 -1.9,-6.8 0.9,-9 v 0 c 2.7,-2.3 6.8,-1.9 9,0.9 z"
   id="path179"
   inkscape:connector-curvature="0"
   style="fill:#f8c09d" />
	<path
   class="st0"
   d="m -799.2,380.3 -12.5,2.8 -6.4,-28.5 c -0.8,-3.5 1.4,-6.9 4.9,-7.7 v 0 c 3.5,-0.8 6.9,1.4 7.7,4.9 z"
   id="path181"
   inkscape:connector-curvature="0"
   style="fill:#f8c09d" />
	<path
   class="st0"
   d="m -803.1,373.2 -7.9,-6.6 c -1.4,-1.2 -3.6,-1 -4.8,0.4 l -28.8,34.4 c -1.2,1.4 -1,3.6 0.4,4.8 l 7.9,6.6 c 5.4,4.5 13.5,3.8 18,-1.6 l 16.7,-19.9 c 4.6,-5.5 3.9,-13.5 -1.5,-18.1 z"
   id="path183"
   inkscape:connector-curvature="0"
   style="fill:#f8c09d" />
</g>
<path
   class="st1"
   d="m 362.52356,818.65398 c 0,0 7.5,-17 19.3,-17.5 11.7,-0.5 17.7,-4.9 17.7,-4.9 0,0 -0.6,7.6 10.7,17.7 11.3,10.1 32.9,20.1 41.8,34.1 10.2,15.9 -4,21.3 -23.1,19.7 -22,-1.9 -27.5,-6.2 -35.8,-15.5 -8.3,-9.3 -21.4,-5.4 -28.6,-10.4 -4.6,-3.3 -3.9,-12.5 -3.9,-15.6 z"
   id="path187"
   inkscape:connector-curvature="0"
   style="fill:#d3222f" />
<path
   class="st2"
   d="m 362.02356,792.15398 c -0.4,-2.8 2.9,-5 5.9,-3.8 3.7,1.4 8.5,2.6 13.9,2.4 6,-0.3 11.7,-1.5 15.9,-2.7 2.9,-0.8 5.8,0.9 6.1,3.5 0.3,2.3 1.1,5.2 3.2,8.8 3.9,6.8 6,8.8 14.2,14.9 7,5.2 25.8,16.2 29.9,22.7 10.2,15.9 0.2,22.4 -19,20.8 -22,-1.9 -30.6,-7.6 -38.9,-16.9 -8.3,-9.3 -21.4,-5.4 -28.6,-10.4 -4.6,-3.3 -3.9,-12.5 -3.9,-15.6 z"
   id="path189"
   inkscape:connector-curvature="0"
   style="fill:#f2f2f2" />
<path
   class="st3"
   d="m 407.52356,830.75398 c 1.2,1.7 4.1,1.9 5.5,0.3 1.7,-1.9 8.9,-6.6 11.8,-7.7 1.6,-0.6 2.9,-1 4,-1.2 2,-0.5 3,-2.3 2.2,-4 l -0.2,-0.5 c -0.7,-1.5 -2.7,-2.3 -4.4,-1.6 -4.3,1.5 -16.3,7.3 -19,11.8 -0.6,0.9 -0.6,2 0.1,2.9 z"
   id="path191"
   inkscape:connector-curvature="0"
   style="fill:#ffffff" />
<path
   class="st3"
   d="m 397.32356,822.55398 c 1.2,1.7 4.1,1.9 5.5,0.3 1.7,-1.9 8.9,-6.6 11.8,-7.7 1.6,-0.6 2.9,-1 4,-1.2 2,-0.5 3,-2.3 2.2,-4 l -0.2,-0.5 c -0.7,-1.5 -2.7,-2.3 -4.4,-1.6 -4.3,1.5 -16.3,7.3 -19,11.8 -0.6,0.9 -0.5,2 0.1,2.9 z"
   id="path193"
   inkscape:connector-curvature="0"
   style="fill:#ffffff" />
<path
   class="st3"
   d="m 386.92356,813.85398 c 1.2,1.7 4.1,1.9 5.5,0.3 1.7,-1.9 8.9,-6.6 11.8,-7.7 1.6,-0.6 2.9,-1 4,-1.2 2,-0.5 3,-2.3 2.2,-4 l -0.2,-0.5 c -0.7,-1.5 -2.7,-2.3 -4.4,-1.6 -4.3,1.5 -16.3,7.3 -19,11.8 -0.6,0.9 -0.5,2 0.1,2.9 z"
   id="path195"
   inkscape:connector-curvature="0"
   style="fill:#ffffff" />
<path
   class="st1"
   d="m 454.42356,852.35398 c 0,0 -2,-3.4 -8,-2.7 -6,0.7 -5.6,12.3 -5.6,12.3 0,0 4.3,0.2 9.5,-3 5.2,-3.2 4.1,-6.6 4.1,-6.6 z"
   id="path197"
   inkscape:connector-curvature="0"
   style="fill:#d3222f" />
<g
   id="g267"
   transform="translate(871.22356,-134.24602)">
	<g
   id="g203">
		<g
   id="g201">
			<path
   class="st13"
   d="m -240.1,327.7 c 0.8,0 1.6,0.1 2.4,0.3 4.8,1.3 7.5,6.3 6.2,11 -1.1,3.9 -4.7,6.5 -8.6,6.5 -0.8,0 -1.6,-0.1 -2.4,-0.3 -4.8,-1.3 -7.5,-6.3 -6.2,-11 1.1,-3.9 4.7,-6.5 8.6,-6.5 m 0,-1.1 v 0 c -4.5,0 -8.4,3 -9.6,7.3 -0.7,2.6 -0.4,5.3 0.9,7.6 1.3,2.3 3.5,4 6,4.7 0.9,0.2 1.8,0.4 2.7,0.4 4.5,0 8.4,-3 9.6,-7.3 1.5,-5.3 -1.6,-10.9 -6.9,-12.4 -0.9,-0.1 -1.8,-0.3 -2.7,-0.3 z"
   id="path199"
   inkscape:connector-curvature="0"
   style="fill:#7da9bc" />
		</g>
	</g>
	
		<rect
   x="-246.5"
   y="341.89999"
   transform="matrix(0.9629,0.2699,-0.2699,0.9629,84.1672,78.255)"
   class="st14"
   width="8.1000004"
   height="6.5"
   id="rect205"
   style="fill:#a2d4db" />
	<path
   class="st14"
   d="m -236.7,343.4 -9.8,-2.7 c -0.9,-0.3 -1.4,-1.2 -1.2,-2.1 l 1.4,-4.9 c 0.3,-0.9 1.2,-1.4 2.1,-1.2 l 9.8,2.7 c 0.9,0.3 1.4,1.2 1.2,2.1 l -1.4,4.9 c -0.3,1 -1.2,1.5 -2.1,1.2 z"
   id="path207"
   inkscape:connector-curvature="0"
   style="fill:#a2d4db" />
	
		<rect
   x="-245.8"
   y="332.39999"
   transform="matrix(0.9629,0.2699,-0.2699,0.9629,81.7488,78.7092)"
   class="st15"
   width="0.89999998"
   height="8.5"
   id="rect209"
   style="fill:#7ebfc4" />
	
		<rect
   x="-243.8"
   y="332.89999"
   transform="matrix(0.9629,0.2699,-0.2699,0.9629,81.9684,78.2038)"
   class="st15"
   width="0.89999998"
   height="8.5"
   id="rect211"
   style="fill:#7ebfc4" />
	
		<rect
   x="-241.89999"
   y="333.5"
   transform="matrix(0.9629,0.2699,-0.2699,0.9629,82.188,77.6985)"
   class="st15"
   width="0.89999998"
   height="8.5"
   id="rect213"
   style="fill:#7ebfc4" />
	
		<rect
   x="-239.89999"
   y="334"
   transform="matrix(0.9629,0.2699,-0.2699,0.9629,82.4076,77.1931)"
   class="st15"
   width="0.89999998"
   height="8.5"
   id="rect215"
   style="fill:#7ebfc4" />
	
		<rect
   x="-238"
   y="334.60001"
   transform="matrix(0.9629,0.2699,-0.2699,0.9629,82.6272,76.6878)"
   class="st15"
   width="0.89999998"
   height="8.5"
   id="rect217"
   style="fill:#7ebfc4" />
	
		<rect
   x="-236"
   y="335.10001"
   transform="matrix(0.9629,0.2699,-0.2699,0.9629,82.8468,76.1824)"
   class="st15"
   width="0.89999998"
   height="8.5"
   id="rect219"
   style="fill:#7ebfc4" />
	
		<rect
   x="-245.89999"
   y="342"
   transform="matrix(0.9629,0.2699,-0.2699,0.9629,83.5747,78.0007)"
   class="st15"
   width="8.1000004"
   height="1.8"
   id="rect221"
   style="fill:#7ebfc4" />
	
		<rect
   x="-259.70001"
   y="342.39999"
   transform="matrix(0.9865,-0.1637,0.1637,0.9865,-59.9027,-37.4403)"
   class="st14"
   width="5.1999998"
   height="4.5999999"
   id="rect223"
   style="fill:#a2d4db" />
	<path
   class="st14"
   d="m -254.8,342.9 -5,0.8 c -0.7,0.1 -1.3,-0.3 -1.4,-1 l -0.3,-2.1 c -0.1,-0.7 0.3,-1.3 1,-1.4 l 5,-0.8 c 0.7,-0.1 1.3,0.3 1.4,1 l 0.3,2.1 c 0.1,0.7 -0.4,1.3 -1,1.4 z"
   id="path225"
   inkscape:connector-curvature="0"
   style="fill:#a2d4db" />
	
		<rect
   x="-259.89999"
   y="343.29999"
   transform="matrix(0.9865,-0.1637,0.1637,0.9865,-59.7659,-37.4748)"
   class="st15"
   width="5.1999998"
   height="1.1"
   id="rect227"
   style="fill:#7ebfc4" />
	<path
   class="st14"
   d="m -230.6,349.7 3.8,3.3 c 0.5,0.4 1.3,0.4 1.7,-0.1 l 1.4,-1.6 c 0.4,-0.5 0.4,-1.3 -0.1,-1.7 l -3.8,-3.3 c -0.5,-0.4 -1.3,-0.4 -1.7,0.1 l -1.4,1.6 c -0.4,0.5 -0.4,1.3 0.1,1.7 z"
   id="path229"
   inkscape:connector-curvature="0"
   style="fill:#a2d4db" />
	
		<rect
   x="-232.2"
   y="350.10001"
   transform="matrix(-0.7577,-0.6526,0.6526,-0.7577,-633.4572,469.6406)"
   class="st14"
   width="5.1999998"
   height="4.5999999"
   id="rect231"
   style="fill:#a2d4db" />
	
		<rect
   x="-231.60001"
   y="351.20001"
   transform="matrix(-0.7577,-0.6526,0.6526,-0.7577,-632.0475,468.8628)"
   class="st15"
   width="5.1999998"
   height="1.1"
   id="rect233"
   style="fill:#7ebfc4" />
	
		<circle
   transform="matrix(0.2699,-0.9629,0.9629,0.2699,-547.3055,32.7069)"
   class="st14"
   cx="-252.10001"
   cy="377.29999"
   id="ellipse235"
   r="32"
   style="fill:#a2d4db" />
	<path
   class="st16"
   d="m -243.9,348.1 c 16.8,4.7 26.6,21.9 22.4,38.7 0.1,-0.3 0.2,-0.5 0.2,-0.8 4.8,-17 -5.2,-34.7 -22.2,-39.5 -17,-4.8 -34.7,5.2 -39.5,22.2 -0.1,0.3 -0.1,0.5 -0.2,0.8 5.2,-16.6 22.5,-26.1 39.3,-21.4 z"
   id="path237"
   inkscape:connector-curvature="0"
   style="fill:#c7eff2" />
	
		<circle
   transform="matrix(0.2699,-0.9629,0.9629,0.2699,-546.8701,33.3083)"
   class="st3"
   cx="-251.5"
   cy="377.29999"
   id="ellipse239"
   r="25.9"
   style="fill:#ffffff" />
	<g
   id="g257">
		<line
   class="st17"
   x1="-245.3"
   y1="355.39999"
   x2="-246.10001"
   y2="358.20001"
   id="line241"
   style="fill:none;stroke:#7da9bc;stroke-width:1.07379997;stroke-linecap:round;stroke-miterlimit:10" />
		<line
   class="st17"
   x1="-256.89999"
   y1="396.60001"
   x2="-257.70001"
   y2="399.39999"
   id="line243"
   style="fill:none;stroke:#7da9bc;stroke-width:1.07379997;stroke-linecap:round;stroke-miterlimit:10" />
		<line
   class="st17"
   x1="-229.5"
   y1="383.60001"
   x2="-232.3"
   y2="382.79999"
   id="line245"
   style="fill:none;stroke:#7da9bc;stroke-width:1.07379997;stroke-linecap:round;stroke-miterlimit:10" />
		<line
   class="st17"
   x1="-270.70001"
   y1="372"
   x2="-273.5"
   y2="371.20001"
   id="line247"
   style="fill:none;stroke:#7da9bc;stroke-width:1.07379997;stroke-linecap:round;stroke-miterlimit:10" />
		<line
   class="st17"
   x1="-240.3"
   y1="397.39999"
   x2="-241.8"
   y2="394.79999"
   id="line249"
   style="fill:none;stroke:#7da9bc;stroke-width:1.07379997;stroke-linecap:round;stroke-miterlimit:10" />
		<line
   class="st17"
   x1="-261.29999"
   y1="360.10001"
   x2="-262.70001"
   y2="357.5"
   id="line251"
   style="fill:none;stroke:#7da9bc;stroke-width:1.07379997;stroke-linecap:round;stroke-miterlimit:10" />
		<line
   class="st17"
   x1="-271.5"
   y1="388.60001"
   x2="-268.89999"
   y2="387.20001"
   id="line253"
   style="fill:none;stroke:#7da9bc;stroke-width:1.07379997;stroke-linecap:round;stroke-miterlimit:10" />
		<line
   class="st17"
   x1="-234.10001"
   y1="367.70001"
   x2="-231.60001"
   y2="366.20001"
   id="line255"
   style="fill:none;stroke:#7da9bc;stroke-width:1.07379997;stroke-linecap:round;stroke-miterlimit:10" />
	</g>
	<line
   class="st18"
   x1="-255.7"
   y1="376.10001"
   x2="-238.8"
   y2="380.79999"
   id="line259"
   style="fill:none;stroke:#c6556b;stroke-width:1.93289995;stroke-linecap:round;stroke-miterlimit:10" />
	<line
   class="st17"
   x1="-252.60001"
   y1="381.5"
   x2="-247"
   y2="361.29999"
   id="line261"
   style="fill:none;stroke:#7da9bc;stroke-width:1.07379997;stroke-linecap:round;stroke-miterlimit:10" />
	
		<circle
   transform="matrix(0.2699,-0.9629,0.9629,0.2699,-546.8701,33.3083)"
   class="st15"
   cx="-251.5"
   cy="377.29999"
   id="ellipse263"
   r="3.4000001"
   style="fill:#7ebfc4" />
	
		<circle
   transform="matrix(0.2699,-0.9629,0.9629,0.2699,-546.8701,33.3083)"
   class="st16"
   cx="-251.5"
   cy="377.29999"
   id="ellipse265"
   r="1.8"
   style="fill:#c7eff2" />
</g>
<g
   id="g277"
   transform="translate(871.22356,-134.24602)">
	<path
   class="st0"
   d="m -223.8,381.3 v 0 c -3.1,1.8 -4.1,5.7 -2.3,8.7 l 2.9,4.9 c 1.8,3.1 5.7,4.1 8.7,2.3 v 0 c 3.1,-1.8 4.1,-5.7 2.3,-8.7 l -2.9,-4.9 c -1.7,-3 -5.6,-4.1 -8.7,-2.3 z"
   id="path269"
   inkscape:connector-curvature="0"
   style="fill:#f8c09d" />
	<path
   class="st0"
   d="m -234.8,388 v 0 c -3.1,1.8 -4.1,5.7 -2.3,8.7 l 5.8,9.6 c 1.8,3.1 5.7,4.1 8.7,2.3 v 0 c 3.1,-1.8 4.1,-5.7 2.3,-8.7 l -5.8,-9.6 c -1.7,-3 -5.6,-4.1 -8.7,-2.3 z"
   id="path271"
   inkscape:connector-curvature="0"
   style="fill:#f8c09d" />
	<path
   class="st0"
   d="m -245.9,394.3 v 0 c -3.1,1.8 -4.1,5.7 -2.3,8.7 l 5.2,8.8 c 1.8,3.1 5.7,4.1 8.7,2.3 v 0 c 3.1,-1.8 4.1,-5.7 2.3,-8.7 l -5.2,-8.8 c -1.7,-3.1 -5.7,-4.1 -8.7,-2.3 z"
   id="path273"
   inkscape:connector-curvature="0"
   style="fill:#f8c09d" />
	<path
   class="st0"
   d="m -256.8,400.9 v 0 c -3.1,1.8 -4.1,5.7 -2.3,8.7 l 1.6,2.8 c 1.8,3.1 5.7,4.1 8.7,2.3 v 0 c 3.1,-1.8 4.1,-5.7 2.3,-8.7 l -1.6,-2.8 c -1.7,-3.1 -5.6,-4.1 -8.7,-2.3 z"
   id="path275"
   inkscape:connector-curvature="0"
   style="fill:#f8c09d" />
</g>
<path
   class="st19"
   d="m 334.42356,184.65398 c 1.3,-7.1 1.7,-15.7 8.1,-20.3 0.8,-0.6 1.8,-1.1 2.8,-1.4 3.2,-0.8 5.1,1.1 7.5,2.7 2.5,1.7 5.2,3.1 8,4.2 5.8,2.2 12.1,3.1 18.2,2.5 3.8,-0.4 7.6,-1.2 11.3,-0.2 4.2,1.2 4.7,8.8 4.2,12.4 -0.8,5.4 -1.5,14.8 -8.1,16.4 -2.8,0.7 -5.7,0 -8.5,-0.9 -2.6,-0.8 -5.2,-1.7 -7.4,-3.2 -1.9,-1.4 -3.5,-3.3 -5.6,-4.4 -3.3,-1.8 -7.3,-1.5 -11,-0.7 -3.7,0.8 -7.3,2 -11.1,1.7 -4.7,-0.3 -9.3,-3.7 -8.4,-8.8 z"
   id="path279"
   inkscape:connector-curvature="0"
   style="fill:#af4135" />
<path
   class="st3"
   d="m 379.02356,172.45398 c -6.2,0.6 -12.4,-0.3 -18.2,-2.5 -2.8,-1.1 -5.5,-2.5 -8,-4.2 -2.4,-1.6 -4.3,-3.5 -7.5,-2.7 -1,0.2 -1.9,0.8 -2.8,1.4 -1.9,1.4 -3.3,3.1 -4.4,5.1 3.6,2.7 12.4,8.3 26.3,10.8 11.4,2 23,2.4 30.2,2.3 0.1,-3.9 -0.8,-9.4 -4.4,-10.4 -3.5,-1.1 -7.4,-0.2 -11.2,0.2 z"
   id="path281"
   inkscape:connector-curvature="0"
   style="fill:#ffffff" />
<line
   class="st20"
   x1="341.32355"
   y1="103.65398"
   x2="356.92358"
   y2="109.35399"
   id="line283"
   style="fill:none;stroke:#333333;stroke-width:3;stroke-miterlimit:10" />
<line
   class="st20"
   x1="403.82358"
   y1="118.15398"
   x2="420.42358"
   y2="117.35399"
   id="line285"
   style="fill:none;stroke:#333333;stroke-width:3;stroke-miterlimit:10" />
<path
   class="st6"
   d="m 366.52356,185.75398 c -17.9,-3.9 -23.8,7.8 -23.7,7.8 3.7,0.3 7.4,-0.9 11.1,-1.7 3.7,-0.8 7.7,-1.1 11,0.7 2.1,1.1 3.6,3 5.5,4.4 2.2,1.6 4.8,2.5 7.4,3.2 1.3,0.4 -0.2,-12 -11.3,-14.4 z"
   id="path287"
   inkscape:connector-curvature="0"
   style="fill:#ef937e" />
<path
   class="st1"
   d="m 773.72356,717.45398 c -0.5,-0.2 -1,-0.4 -1.5,-0.6 4.9,1.9 8.4,6.9 8.5,12.2 0.1,5.2 -3.3,10.4 -8.1,12.4 -2.2,0.9 -4.7,1.2 -7.1,1.5 -15.6,1.6 -31.3,1.4 -46.9,0.8 -11,-0.4 -22.1,-1.1 -32.6,-4.3 -2,-0.6 -4,-1.3 -5.5,-2.7 -4.5,-4.1 -2.7,-10.3 -2.8,-15.6 -0.1,-6.7 0.5,-12.7 2.4,-19.1 6.4,-21.1 11.8,-25.6 22.6,-31.8 10.8,-6.2 9.7,-19.8 16.1,-25.8 4.1,-3.9 13,-1.2 16.1,-0.6 l 7,3.4 c 0,0 15.1,10.9 13.1,22.5 -1.9,11.6 1.2,18.4 1.2,18.4 0,0 -7.3,-2.2 -19.6,6.8 -12.3,9 -26.5,28 -42,33.9 -10.2,3.8 -15.3,0.5 -16.7,-6.6"
   id="path289"
   inkscape:connector-curvature="0"
   style="fill:#d3222f" />
<path
   class="st2"
   d="m 690.52356,708.85398 c 2,-12.8 7.5,-25.2 8.6,-38.2 0.4,-4.9 0.2,-9.8 1.1,-14.6 0.5,-2.7 1.3,-5.3 2.9,-7.5 3.7,-5.1 8.9,-4.8 14.4,-4.7 6,0.1 11.7,0.8 17.6,2 5,1 9.4,1.4 9.9,7.3 1.2,16.1 -1.6,32.3 -4.6,48.1 -0.3,1.4 -0.5,2.9 0.1,4.2 0.8,1.7 3.1,1.6 4.7,2 2.4,0.7 4.7,1.7 7.1,2.6 5.2,1.9 10.6,2.7 13.9,7.7 1.9,2.9 2.8,6.6 2.2,10 -0.1,0.8 -0.3,1.6 -0.7,2.4 -1.9,4.3 -7.8,4.4 -11.8,4.3 -5.9,-0.1 -11.8,-0.1 -17.8,-0.2 -8.2,0 -16.3,-0.4 -24.4,-0.7 -3.3,-0.1 -6.1,0.4 -9.2,-0.6 -3.1,-1 -6.1,-2.4 -8.7,-4.2 -2.3,-1.6 -4.6,-3.6 -5.4,-6.3 -0.4,-1.2 -0.4,-2.4 -0.5,-3.6 -0.3,-3.3 0,-6.7 0.6,-10 z"
   id="path291"
   inkscape:connector-curvature="0"
   style="fill:#f2f2f2" />
<path
   class="st3"
   d="m 746.82356,672.45398 c -0.1,-2.1 -2.4,-3.8 -4.5,-3.3 -2.5,0.6 -11,0.8 -14.1,0.1 -1.7,-0.4 -3,-0.7 -4,-1.1 -1.9,-0.7 -3.8,0.4 -4,2.2 l -0.1,0.6 c -0.2,1.7 1.1,3.4 2.9,3.8 4.4,1 17.7,2.7 22.4,0.3 0.9,-0.5 1.4,-1.5 1.4,-2.6 z"
   id="path293"
   inkscape:connector-curvature="0"
   style="fill:#ffffff" />
<path
   class="st3"
   d="m 746.82356,684.85398 c -0.1,-2.1 -2.4,-3.8 -4.5,-3.3 -2.5,0.6 -11,0.8 -14.1,0.1 -1.7,-0.4 -3,-0.7 -4,-1.1 -1.9,-0.7 -3.8,0.4 -4,2.2 l -0.1,0.6 c -0.2,1.7 1.1,3.4 2.9,3.8 4.4,1 17.7,2.7 22.4,0.3 0.9,-0.5 1.4,-1.5 1.4,-2.6 z"
   id="path295"
   inkscape:connector-curvature="0"
   style="fill:#ffffff" />
<path
   class="st3"
   d="m 746.82356,697.85398 c -0.1,-2.1 -2.4,-3.8 -4.5,-3.3 -2.5,0.6 -11,0.8 -14.1,0.1 -1.7,-0.4 -3,-0.7 -4,-1.1 -1.9,-0.7 -3.8,0.4 -4,2.2 l -0.1,0.6 c -0.2,1.7 1.1,3.4 2.9,3.8 4.4,1 17.7,2.7 22.4,0.3 0.9,-0.6 1.4,-1.5 1.4,-2.6 z"
   id="path297"
   inkscape:connector-curvature="0"
   style="fill:#ffffff" />
<path
   class="st1"
   d="m 762.12356,735.25398 c 0,0 5.5,4.5 8.3,-3.6 2.8,-8.1 -7.4,-16.9 -7.4,-16.9 0,0 -4.4,4.5 -3.9,12.9 0.6,8.4 3,7.6 3,7.6 z"
   id="path299"
   inkscape:connector-curvature="0"
   style="fill:#d3222f" />
<g
   id="g515"
   transform="translate(871.22356,-134.24602)">
	<g
   id="g321">
		<path
   class="st4"
   d="m 1265.9,780.6 16.4,-111.2 -65.9,-8.4 -12.9,111.4 c -2,17.4 10.6,33.2 28.1,34.9 v 0 c 16.7,1.7 31.8,-10 34.3,-26.7 z"
   id="path301"
   inkscape:connector-curvature="0"
   style="fill:#f6ae8d" />
		<path
   class="st4"
   d="m 1250,758.2 v 0 c 12.7,5.9 18,21.1 11.8,33.6 l -66,106.6 -32.7,-17.1 40.2,-108.9 c 5.4,-13.6 26.1,-30.2 46.7,-14.2 z"
   id="path303"
   inkscape:connector-curvature="0"
   style="fill:#f6ae8d" />
		<path
   class="st12"
   d="m 1272.8,743.2 -66.3,-8.7 9.2,-69.9 c 2.4,-18.3 19.2,-31.2 37.5,-28.8 v 0 c 18.3,2.4 31.2,19.2 28.8,37.5 z"
   id="path305"
   inkscape:connector-curvature="0"
   style="fill:#e6e6e6" />
		<path
   class="st4"
   d="m 1166.5,873.7 c 0,0 -29.4,-8.3 -39.9,7.9 -7.7,11.9 -10.3,16.8 -10.1,25.8 0.2,8.6 53,14.2 54.3,3.6 1.3,-10.5 13.5,-2.8 20.9,-6.5 7.4,-3.7 5.4,-18.4 -3.4,-22 -8.9,-3.6 -21.8,-8.8 -21.8,-8.8 z"
   id="path307"
   inkscape:connector-curvature="0"
   style="fill:#f6ae8d" />
		<g
   id="g319">
			<path
   class="st4"
   d="m 1116.4,903.5 0.3,11.8 c 0.1,2.3 2,4.2 4.3,4.1 l 49.8,-1.3 c 2.3,-0.1 4.2,-2 4.1,-4.3 l -0.3,-11.8 c -0.1,-5.4 -4.6,-9.7 -10,-9.5 l -38.6,1 c -5.4,0.2 -9.7,4.6 -9.6,10 z"
   id="path309"
   inkscape:connector-curvature="0"
   style="fill:#f6ae8d" />
			<path
   class="st4"
   d="m 1167.4,896.8 v 0 c -4,0.1 -7.2,3.4 -7.1,7.5 v 17.1 c 0.1,4 3.4,7.2 7.5,7.1 v 0 c 4,-0.1 7.2,-3.4 7.1,-7.5 v -17.1 c -0.1,-4 -3.5,-7.2 -7.5,-7.1 z"
   id="path311"
   inkscape:connector-curvature="0"
   style="fill:#f6ae8d" />
			<path
   class="st4"
   d="m 1153,903.7 v 0 c -4,0.1 -7.2,3.4 -7.1,7.5 l 0.4,17.1 c 0.1,4 3.4,7.2 7.5,7.1 v 0 c 4,-0.1 7.2,-3.4 7.1,-7.5 l -0.4,-17.1 c -0.1,-4 -3.5,-7.2 -7.5,-7.1 z"
   id="path313"
   inkscape:connector-curvature="0"
   style="fill:#f6ae8d" />
			<path
   class="st4"
   d="m 1138.3,900.4 v 0 c -4,0.1 -7.2,3.4 -7.1,7.5 l 0.4,17.1 c 0.1,4 3.4,7.2 7.5,7.1 v 0 c 4,-0.1 7.2,-3.4 7.1,-7.5 l -0.4,-17.1 c -0.1,-4 -3.4,-7.2 -7.5,-7.1 z"
   id="path315"
   inkscape:connector-curvature="0"
   style="fill:#f6ae8d" />
			<path
   class="st4"
   d="m 1123.6,895.4 v 0 c -4,0.1 -7.2,3.4 -7.1,7.5 l 0.4,17.1 c 0.1,4 3.4,7.2 7.5,7.1 v 0 c 4,-0.1 7.2,-3.4 7.1,-7.5 l -0.4,-17.1 c -0.1,-4 -3.5,-7.2 -7.5,-7.1 z"
   id="path317"
   inkscape:connector-curvature="0"
   style="fill:#f6ae8d" />
		</g>
	</g>
	<g
   id="g345">
		<path
   class="st0"
   d="m 753.2,638.1 v 0 c -8.7,-5.2 -20.1,-2.4 -25.3,6.3 L 669,742.2 c -5.2,8.7 -2.4,20.1 6.3,25.3 v 0 c 8.7,5.2 20.1,2.4 25.3,-6.3 l 58.9,-97.8 c 5.3,-8.8 2.4,-20.1 -6.3,-25.3 z"
   id="path323"
   inkscape:connector-curvature="0"
   style="fill:#f8c09d" />
		<path
   class="st0"
   d="m 613,609.9 v 0 c -3,9.7 2.5,20.1 12.2,23.1 l 114.7,34.3 c 9.7,3 20.1,-2.5 23.1,-12.2 v 0 C 766,645.4 760.5,635 750.8,632 L 636,597.7 c -9.7,-3 -20,2.4 -23,12.2 z"
   id="path325"
   inkscape:connector-curvature="0"
   style="fill:#f8c09d" />
		<path
   class="st21"
   d="m 679.4,693.7 57.9,33.4 -35.3,61.1 c -9.2,16 -29.7,21.5 -45.7,12.2 v 0 c -16,-9.2 -21.5,-29.7 -12.2,-45.7 z"
   id="path327"
   inkscape:connector-curvature="0"
   style="fill:#065082" />
		<g
   id="g343">
			<path
   class="st0"
   d="m 638.9,590.4 -11.2,-3.2 -10.7,36.1 c -1.1,3.9 1.1,7.9 4.9,9 l 9.5,2.8 c 4.1,1.2 8.4,-1.1 9.6,-5.2 l 6.8,-23.1 c 2.1,-7 -1.9,-14.3 -8.9,-16.4 z"
   id="path329"
   inkscape:connector-curvature="0"
   style="fill:#f8c09d" />
			<path
   class="st0"
   d="m 626.6,627.7 v 0 c 0.9,-3.1 -0.9,-6.4 -4,-7.3 l -13.1,-3.9 c -3.1,-0.9 -6.4,0.9 -7.3,4 v 0 c -0.9,3.1 0.9,6.4 4,7.3 l 13.1,3.9 c 3.1,0.9 6.3,-0.9 7.3,-4 z"
   id="path331"
   inkscape:connector-curvature="0"
   style="fill:#f8c09d" />
			<path
   class="st0"
   d="m 627.5,615.6 v 0 c 0.9,-3.1 -0.9,-6.4 -4,-7.3 l -13.1,-3.9 c -3.1,-0.9 -6.4,0.9 -7.3,4 v 0 c -0.9,3.1 0.9,6.4 4,7.3 l 13.1,3.9 c 3.1,0.9 6.4,-0.9 7.3,-4 z"
   id="path333"
   inkscape:connector-curvature="0"
   style="fill:#f8c09d" />
			<path
   class="st0"
   d="m 633.2,594.5 v 0 c 0.8,-2.9 -0.8,-5.9 -3.7,-6.7 l -11.7,-3.5 c -2.9,-0.8 -5.9,0.8 -6.7,3.7 v 0 c -0.8,2.9 0.8,5.9 3.7,6.7 l 11.7,3.5 c 2.9,0.8 5.9,-0.9 6.7,-3.7 z"
   id="path335"
   inkscape:connector-curvature="0"
   style="fill:#f8c09d" />
			<path
   class="st0"
   d="m 631.7,605.1 v 0 c 0.8,-2.9 -0.8,-5.9 -3.7,-6.7 l -14.1,-4.2 c -2.9,-0.8 -5.9,0.8 -6.7,3.7 v 0 c -0.8,2.9 0.8,5.9 3.7,6.7 l 14.1,4.2 c 2.8,0.8 5.8,-0.9 6.7,-3.7 z"
   id="path337"
   inkscape:connector-curvature="0"
   style="fill:#f8c09d" />
			<path
   class="st0"
   d="m 620.4,633.6 v 0 c 3.1,0.8 6.4,-1.1 7.2,-4.2 l 3.1,-12.6 c 0.8,-3.1 -1.1,-6.4 -4.2,-7.2 v 0 c -3.1,-0.8 -6.4,1.1 -7.2,4.2 l -3.1,12.6 c -0.8,3.1 1.1,6.4 4.2,7.2 z"
   id="path339"
   inkscape:connector-curvature="0"
   style="fill:#f8c09d" />
			<path
   class="st0"
   d="m 640.6,630.9 v 0 c -0.1,-3.3 -2.8,-5.8 -6.1,-5.7 l -13.5,0.4 c -3.3,0.1 -5.8,2.8 -5.7,6.1 v 0 c 0.1,3.3 2.8,5.8 6.1,5.7 l 13.5,-0.4 c 3.3,-0.2 5.8,-2.9 5.7,-6.1 z"
   id="path341"
   inkscape:connector-curvature="0"
   style="fill:#f8c09d" />
		</g>
	</g>
	<path
   class="st2"
   d="m 1282.1,814 c 0,0 53.3,49.2 107.7,25.9 54.3,-23.3 65.6,-47.1 65.6,-47.1 0,0 -33,-47.4 -87.4,-97 -21.9,-19.9 -40.6,-35.3 -56,-46.9 -29.3,-22.2 -68.3,-27 -102.1,-12.5 l -54,23.1 c -8.1,3.5 -11.6,13 -7.5,20.8 0,0 15.6,38.6 67.8,89.7 32.9,32.1 65.9,44 65.9,44 z"
   id="path347"
   inkscape:connector-curvature="0"
   style="fill:#f2f2f2" />
	<path
   class="st0"
   d="m 1443.1,858.9 7.2,33.9 -115.8,50 c 0,0 -27.9,17.1 -57.8,5.2 -37.1,-14.7 -30.7,-45.9 -30.7,-45.9 l 16.3,-31 98.6,5.9 z"
   id="path349"
   inkscape:connector-curvature="0"
   style="fill:#f8c09d" />
	<path
   class="st1"
   d="m 1373.8,871 h 1.4 c 45,0 78.9,-34.4 78.9,-79.4 v -0.7 c 0,0 -35.8,11.2 -86.2,20.6 -50.4,9.4 -85.8,1.8 -85.8,1.8 v 0.7 c 0,45 46.7,57 91.7,57 z"
   id="path351"
   inkscape:connector-curvature="0"
   style="fill:#d3222f" />
	<path
   class="st1"
   d="m 1222.6,631 1,2.1 c 8,18.5 -0.3,40 -18.5,48.4 v 0 c -19.1,8.7 -41.2,0.3 -49.5,-18.7 l -1.2,-2.5 z"
   id="path353"
   inkscape:connector-curvature="0"
   style="fill:#d3222f" />
	<path
   class="st0"
   d="m 1200,670.5 v 0 c 12.1,-5.6 17.6,-19.8 12.3,-32 l -9.7,-21.9 -44.1,21.2 8.8,20.3 c 5.5,12.5 20.2,18.1 32.7,12.4 z"
   id="path355"
   inkscape:connector-curvature="0"
   style="fill:#f8c09d" />
	<path
   class="st4"
   d="m 1208.9,630.7 c -6,5.6 -13.1,10.9 -20.6,14.1 -7.6,3.3 -15.8,5.7 -24.2,6.1 l -5.6,-13.3 44,-21.2 z"
   id="path357"
   inkscape:connector-curvature="0"
   style="fill:#f6ae8d" />
	<path
   class="st0"
   d="m 1176.2,641.4 c 31.7,-17.4 49.8,-60 30.4,-95.4 l -43.4,-79.1 c -8.2,-15 -27.1,-20.5 -42.1,-12.3 l -73.1,40 c -15,8.2 -20.5,27.1 -12.3,42.1 l 43.4,79.1 c 19.4,35.4 65.4,43 97.1,25.6 z"
   id="path359"
   inkscape:connector-curvature="0"
   style="fill:#f8c09d" />
	
		<rect
   x="1168.2"
   y="467.29999"
   transform="matrix(-0.8766,0.4812,-0.4812,-0.8766,2443.5803,350.0106)"
   class="st5"
   width="17.299999"
   height="41.900002"
   id="rect361"
   style="fill:#754c24" />
	
		<circle
   transform="matrix(0.877,-0.4805,0.4805,0.877,-101.9644,636.0441)"
   class="st0"
   cx="1191.3"
   cy="517.20001"
   id="ellipse363"
   r="20.700001"
   style="fill:#f8c09d" />
	<path
   class="st6"
   d="m 1196.3,517.7 c -1.9,-3.5 -6.4,-4.8 -9.9,-2.9 -1,0.5 -1.8,1.3 -2.4,2.1 0.1,-2.5 1.4,-4.9 3.8,-6.2 3.5,-1.9 8,-0.6 9.9,2.9 1.4,2.6 1.1,5.6 -0.5,7.8 0,-1.2 -0.3,-2.5 -0.9,-3.7 z"
   id="path365"
   inkscape:connector-curvature="0"
   style="fill:#ef937e" />
	
		<rect
   x="1047.3"
   y="535.5"
   transform="matrix(-0.8766,0.4812,-0.4812,-0.8766,2243.2073,537.7925)"
   class="st5"
   width="10.7"
   height="41.900002"
   id="rect367"
   style="fill:#754c24" />
	<path
   class="st6"
   d="m 1113,569 7.2,13.1 c 0.3,0.6 -0.2,1.5 -0.7,1.8 l -7.8,4.2 c -2.1,1.2 -4.6,-0.7 -4.2,-3 l 3.1,-15.7 c 0.2,-1.1 1.9,-1.5 2.4,-0.4 z"
   id="path369"
   inkscape:connector-curvature="0"
   style="fill:#ef937e" />
	
		<circle
   transform="matrix(0.877,-0.4805,0.4805,0.877,-149.8898,584.8677)"
   class="st0"
   cx="1067.3"
   cy="585.20001"
   id="ellipse371"
   r="20.700001"
   style="fill:#f8c09d" />
	<path
   class="st6"
   d="m 1062.5,590.6 c -1.9,-3.5 -0.6,-8 2.9,-9.9 1,-0.5 2,-0.8 3.1,-0.9 -2.2,-1.3 -4.9,-1.4 -7.3,-0.1 -3.5,1.9 -4.8,6.4 -2.9,9.9 1.4,2.6 4.1,3.9 6.9,3.8 -1.1,-0.7 -2,-1.6 -2.7,-2.8 z"
   id="path373"
   inkscape:connector-curvature="0"
   style="fill:#ef937e" />
	<ellipse
   transform="matrix(0.8791,-0.4767,0.4767,0.8791,-123.022,607.5823)"
   class="st7"
   cx="1136"
   cy="546.29999"
   rx="5"
   ry="8.8000002"
   id="ellipse375"
   style="fill:#333333" />
	
		<ellipse
   transform="matrix(0.8791,-0.4767,0.4767,0.8791,-144.1981,584.6366)"
   class="st7"
   cx="1080.2"
   cy="576.5"
   rx="5"
   ry="8.8000002"
   id="ellipse377"
   style="fill:#333333" />
	<path
   class="st1"
   d="m 1038.7,540.2 136,-74.6 v 0 c -19.4,-35.3 -63.7,-48.2 -99,-28.8 l -8.2,4.5 c -35.2,19.3 -48.1,63.6 -28.8,98.9 z"
   id="path379"
   inkscape:connector-curvature="0"
   style="fill:#d3222f" />
	<path
   class="st8"
   d="m 1034.1,563.1 c -0.9,4.2 4.1,6.9 7.6,4.1 11.1,-9.2 30.5,-24 53.7,-36.7 20.7,-11.4 41,-19.2 54.8,-23.8 10.7,-3.6 18.8,-12.6 21,-23.3 l 3.6,-17.8 c 0,0 -34.8,9.3 -77.5,32.7 -42.8,23.5 -58.5,41.9 -58.5,41.9 z"
   id="path381"
   inkscape:connector-curvature="0"
   style="fill:#bc1e31" />
	<g
   id="g391">
		<polyline
   class="st9"
   points="1166,655 1192,784.6 1212.7,635.3   "
   id="polyline383"
   style="fill:none;stroke:#cccccc;stroke-width:2;stroke-miterlimit:10" />
		<path
   class="st10"
   d="m 1177.5,794 c 0.4,-5 4.8,-9.4 10.2,-9.4 5.7,0 10.2,4.6 10.2,10.2 0,5.7 -4.5,10.2 -10.2,10.2 -0.7,0 -1,-0.1 -2,-0.2 l -3,11.2 -5,-4.1 z"
   id="path385"
   inkscape:connector-curvature="0"
   style="fill:#b3b3b3" />
		<path
   class="st11"
   d="m 1182.5,794 c 0.4,-5 4.2,-9.4 8.8,-9.4 4.9,0 8.8,4.6 8.8,10.2 0,5.7 -3.7,10.2 -8.6,10.2 -0.6,0 -0.5,-0.1 -1.5,-0.2 V 816 h -7.3 z"
   id="path387"
   inkscape:connector-curvature="0"
   style="fill:#cccccc" />
		<ellipse
   class="st12"
   cx="1191.3"
   cy="795.09998"
   rx="5.5"
   ry="6.3000002"
   id="ellipse389"
   style="fill:#e6e6e6" />
	</g>
	<path
   class="st1"
   d="m 1465,849.2 c 0,0 -14,12.2 -11,23.6 3,11.4 0.5,18.4 0.5,18.4 0,0 7.1,-2.8 20.1,5 13,7.8 28.9,25.4 45,29.8 18.2,5 19.2,-10.2 11.9,-27.9 -8.4,-20.4 -14.1,-24.4 -25.5,-29.6 -11.3,-5.2 -11.5,-18.8 -18.4,-24.2 -4.5,-3.5 -13.1,0 -16.1,0.9 z"
   id="path393"
   inkscape:connector-curvature="0"
   style="fill:#d3222f" />
	<path
   class="st2"
   d="m 1439.6,856.5 c -2.9,0.4 -3.9,4.2 -1.9,6.8 2.4,3.1 5,7.4 6.4,12.6 1.5,5.8 2,11.6 2.1,16 0.1,3 2.6,5.2 5.1,4.8 2.3,-0.4 5.3,-0.5 9.3,0.4 7.7,1.7 10.2,3.1 18.4,9.1 7.1,5.1 23.1,19.8 30.5,21.8 18.2,5 21.5,-6.5 14.2,-24.3 -8.4,-20.4 -16.3,-27 -27.6,-32.2 -11.3,-5.2 -11.5,-18.8 -18.4,-24.2 -4.5,-3.5 -13.1,0 -16.1,0.9 z"
   id="path395"
   inkscape:connector-curvature="0"
   style="fill:#f2f2f2" />
	<path
   class="st3"
   d="m 1490.1,892.9 c 2,0.7 3,3.3 2,5.2 -1.3,2.2 -3.7,10.4 -3.8,13.5 -0.1,1.7 -0.1,3.1 0,4.2 0.1,2 -1.4,3.5 -3.1,3.3 l -0.6,-0.1 c -1.7,-0.2 -3,-1.9 -2.9,-3.7 0.2,-4.5 2.1,-17.7 5.6,-21.7 0.7,-0.8 1.8,-1.1 2.8,-0.7 z"
   id="path397"
   inkscape:connector-curvature="0"
   style="fill:#ffffff" />
	<path
   class="st3"
   d="m 1479.3,885.6 c 2,0.7 3,3.3 2,5.2 -1.3,2.2 -3.7,10.4 -3.8,13.5 -0.1,1.7 -0.1,3.1 0,4.2 0.1,2 -1.4,3.5 -3.1,3.3 l -0.6,-0.1 c -1.7,-0.2 -3,-1.9 -2.9,-3.7 0.2,-4.5 2.1,-17.7 5.6,-21.7 0.6,-0.8 1.7,-1.1 2.8,-0.7 z"
   id="path399"
   inkscape:connector-curvature="0"
   style="fill:#ffffff" />
	<path
   class="st3"
   d="m 1467.9,878.3 c 2,0.7 3,3.3 2,5.2 -1.3,2.2 -3.7,10.4 -3.8,13.5 -0.1,1.7 -0.1,3.1 0,4.2 0.1,2 -1.4,3.5 -3.1,3.3 l -0.6,-0.1 c -1.7,-0.2 -3,-1.9 -2.9,-3.7 0.2,-4.5 2.1,-17.7 5.6,-21.7 0.7,-0.8 1.8,-1.1 2.8,-0.7 z"
   id="path401"
   inkscape:connector-curvature="0"
   style="fill:#ffffff" />
	<path
   class="st1"
   d="m 1524.5,926.9 c 0,0 -3.9,-0.8 -5,-6.8 -1.1,-5.9 10.1,-9 10.1,-9 0,0 1.4,4 -0.1,9.9 -1.5,5.9 -5,5.9 -5,5.9 z"
   id="path403"
   inkscape:connector-curvature="0"
   style="fill:#d3222f" />
	<path
   class="st19"
   d="m 1167.9,599.9 c -3.5,-6.3 -6.6,-14.3 -14.2,-16.6 -1,-0.3 -2,-0.5 -3.1,-0.4 -3.2,0.3 -4.4,2.6 -6.2,4.9 -1.8,2.4 -4,4.6 -6.3,6.5 -4.8,3.9 -10.4,6.8 -16.5,8.2 -3.7,0.9 -7.6,1.3 -10.7,3.4 -3.6,2.5 -1.7,9.9 0,13.1 2.5,4.9 6.1,13.6 13,13 2.9,-0.3 5.4,-1.9 7.8,-3.5 2.2,-1.6 4.4,-3.2 5.9,-5.4 1.4,-1.9 2.2,-4.2 3.8,-6 2.5,-2.8 6.5,-3.7 10.2,-4.2 3.7,-0.4 7.6,-0.5 11.1,-1.9 4.4,-1.8 7.7,-6.5 5.2,-11.1 z"
   id="path405"
   inkscape:connector-curvature="0"
   style="fill:#af4135" />
	<path
   class="st3"
   d="m 1121.7,602.6 c 6,-1.4 11.7,-4.3 16.5,-8.2 2.3,-1.9 4.5,-4.1 6.3,-6.5 1.8,-2.3 3,-4.6 6.2,-4.9 1,-0.1 2.1,0.1 3.1,0.4 2.3,0.7 4.2,1.9 5.8,3.5 -2.5,3.7 -9.1,11.9 -21.4,18.6 -10.2,5.6 -21.1,9.6 -27.9,11.8 -1.3,-3.6 -2.2,-9.1 0.8,-11.2 3,-2.3 7,-2.7 10.6,-3.5 z"
   id="path407"
   inkscape:connector-curvature="0"
   style="fill:#ffffff" />
	<line
   class="st20"
   x1="1135.6"
   y1="525.29999"
   x2="1122.6"
   y2="535.70001"
   id="line409"
   style="fill:none;stroke:#333333;stroke-width:3;stroke-miterlimit:10" />
	<line
   class="st20"
   x1="1081"
   y1="559"
   x2="1065"
   y2="563.59998"
   id="line411"
   style="fill:none;stroke:#333333;stroke-width:3;stroke-miterlimit:10" />
	<path
   class="st6"
   d="m 1137.9,611.2 c 15.7,-9.4 25,-0.2 24.9,-0.1 -3.5,1.5 -7.3,1.5 -11.1,1.9 -3.7,0.4 -7.7,1.4 -10.2,4.2 -1.6,1.7 -2.5,4 -3.8,6 -1.6,2.2 -3.7,3.9 -5.9,5.4 -1.1,0.7 -3.7,-11.6 6.1,-17.4 z"
   id="path413"
   inkscape:connector-curvature="0"
   style="fill:#ef937e" />
	<path
   class="st22"
   d="m 824.7,923.1 -1.8,-104.6 c 0,0 -29.6,4.5 -71.2,-3.4 -34.7,-6.6 -66.7,-42.9 -79.4,-57 -14.5,-16.2 -44.7,-15.4 -57.1,2.5 L 592,777.4 c -17.2,13.4 -3.6,66.8 17,87.1 35.6,35.1 87.8,60 175.9,60 59.6,-0.1 39.8,-1.4 39.8,-1.4 z"
   id="path415"
   inkscape:connector-curvature="0"
   style="fill:#1561a0" />
	<path
   class="st21"
   d="m 662.6,750.7 c -17.5,-7 -34.4,-4.6 -51,7 v 0 C 605,762.4 598,769.3 592,777.4 l 8.8,9.4 c 13.7,14.7 37.3,15.4 51.9,1.7 l 0.3,-0.2 v 0 c 10.2,-10.1 13.7,-24.6 9.6,-37.6 z"
   id="path417"
   inkscape:connector-curvature="0"
   style="fill:#065082" />
	<path
   class="st0"
   d="m 648.1,747.8 c 7.7,10.9 5.5,26.6 -5.8,33.8 v 0 l -0.1,0.3 c -10.9,7.7 -26.3,5.2 -34.1,-5.7 l -12.4,-17.6 39.9,-28.4 z"
   id="path419"
   inkscape:connector-curvature="0"
   style="fill:#f8c09d" />
	<path
   class="st4"
   d="m 605,771.7 c 10.1,-2.1 19.5,-6.1 27.2,-11.5 5.4,-3.8 10.3,-8.6 14.6,-14.2 l -9,-12.7 -40,28.3 z"
   id="path421"
   inkscape:connector-curvature="0"
   style="fill:#f6ae8d" />
	<path
   class="st23"
   d="m 906.1,869.4 v 0 c -0.5,-28.8 -24.5,-52 -53.3,-51.5 l -29.9,0.5 1.8,104.8 29.9,-0.5 c 28.8,-0.5 52,-24.5 51.5,-53.3 z"
   id="path423"
   inkscape:connector-curvature="0"
   style="fill:#22b573" />
	<path
   class="st0"
   d="m 618.5,755.6 c -32.1,16.6 -77.6,7.7 -96.1,-28.1 L 466.8,619.7 596,553 651.6,660.8 c 18.5,35.8 -1,78.2 -33.1,94.8 z"
   id="path425"
   inkscape:connector-curvature="0"
   style="fill:#f8c09d" />
	<path
   class="st7"
   d="m 538,685 c 0,0 0.2,0.3 -5.4,17.4 -4.9,15.1 -4.3,34.6 -4.3,34.6 0,0 -19.2,-1.9 -32,-24.5 -10.1,-17.8 -20,-37 -20,-37 l 44.8,-23.1 z"
   id="path427"
   inkscape:connector-curvature="0"
   style="fill:#333333" />
	
		<circle
   transform="matrix(0.8887,-0.4585,0.4585,0.8887,-258.8636,320.704)"
   class="st0"
   cx="531.09998"
   cy="693.5"
   id="ellipse429"
   r="20.700001"
   style="fill:#f8c09d" />
	<path
   class="st6"
   d="m 528.8,698 c -1.9,-3.6 -0.4,-8 3.2,-9.9 1,-0.5 2,-0.8 3.1,-0.8 -2.1,-1.3 -4.9,-1.5 -7.2,-0.3 -3.6,1.9 -5,6.3 -3.2,9.9 1.3,2.6 4,4.1 6.8,4 -1.2,-0.7 -2.1,-1.7 -2.7,-2.9 z"
   id="path431"
   inkscape:connector-curvature="0"
   style="fill:#ef937e" />
	<path
   class="st6"
   d="m 602.3,650.5 6.9,13.3 c 0.3,0.6 1.3,0.7 1.9,0.4 l 7.9,-4.1 c 2.1,-1.1 2,-4.2 -0.2,-5.1 l -14.7,-6.2 c -1.2,-0.6 -2.3,0.6 -1.8,1.7 z"
   id="path433"
   inkscape:connector-curvature="0"
   style="fill:#ef937e" />
	<path
   class="st7"
   d="m 477.6,613.5 0.1,0.3 -9,4.6 c -9.5,4.8 -13.3,16.5 -8.4,26.1 v 0 l 6.1,11.9 15.7,30.5 29.4,-14.2 -4.4,-9 c -2.9,-6 -0.4,-13.1 5.6,-16 l 87.2,-42.1 c 11.5,-5.5 16.3,-19.4 10.8,-30.9 0.1,0 -138.7,27.3 -133.1,38.8 z"
   id="path435"
   inkscape:connector-curvature="0"
   style="fill:#333333" />
	<path
   class="st7"
   d="m 477.3,613.7 c -9,-13.3 -11.3,-22.4 -5.7,-35.2 3.6,-8.3 13.9,-15.5 18,-17.5 2.7,-1.3 5.7,-2.3 8.8,-2.2 6.5,0.2 12.8,5.5 14.2,12 1.3,-5.5 3.4,-10.7 6.2,-15.5 3.6,-6.1 8.7,-11.7 15.5,-13.3 6.8,-1.6 15.3,2.4 16.9,9.5 2.5,-3.4 4,-7.4 6.4,-10.9 3.7,-5.6 9.5,-9.7 16,-11.4 2.4,-0.6 5,-0.9 7.5,-0.6 5.1,0.6 9.8,3.7 13.4,7.7 3.5,4 21.1,26.3 18.3,49 -0.4,2.9 -10.9,6 -13.6,6.9 z"
   id="path437"
   inkscape:connector-curvature="0"
   style="fill:#333333" />
	
		<rect
   x="462.89999"
   y="617.70001"
   transform="matrix(0.8887,-0.4585,0.4585,0.8887,-228.1649,319.5752)"
   class="st22"
   width="162.5"
   height="24"
   id="rect439"
   style="fill:#1561a0" />
	<path
   class="st7"
   d="m 637.8,638.7 v 0 c 0.2,-1.1 -0.6,-2.1 -1.7,-2.3 -1.6,-0.2 -3.9,-0.5 -5.5,-0.5 -1.7,0 -3.5,0.2 -5,0.4 0.6,-1.1 1.5,-2.4 2.8,-3.6 1.8,-1.6 3.3,-2.4 4.2,-2.7 0.8,-0.3 1.3,-1 1.3,-1.8 v 0 c 0,-1.4 -1.4,-2.4 -2.7,-1.9 -1.4,0.5 -3.4,1.5 -5.5,3.5 -4.5,4.1 -5.2,8.9 -5.3,9.1 v 0 c -0.2,1.4 1.2,2.6 2.6,2.2 v 0 c 0,0 3.9,-1.2 7.4,-1.1 1.4,0 3.5,0.3 5.1,0.5 1.1,0.1 2.1,-0.7 2.3,-1.8 z"
   id="path441"
   inkscape:connector-curvature="0"
   style="fill:#333333" />
	<path
   class="st7"
   d="m 573.9,671.7 v 0 c -1,-0.5 -1.4,-1.7 -0.9,-2.7 0.8,-1.4 1.9,-3.4 2.7,-4.8 1,-1.4 2.2,-2.8 3.2,-3.8 -1.3,-0.2 -2.8,-0.2 -4.6,0.2 -2.4,0.5 -3.8,1.3 -4.7,1.9 -0.7,0.5 -1.5,0.5 -2.2,0 v 0 c -1.2,-0.8 -1.2,-2.5 0,-3.3 1.3,-0.9 3.2,-1.8 6.1,-2.5 6,-1.3 10.3,0.9 10.5,1 v 0 c 1.3,0.7 1.4,2.5 0.3,3.4 v 0 c 0,0 -3.3,2.5 -5.2,5.4 -0.8,1.2 -1.8,3.1 -2.5,4.4 -0.5,0.9 -1.7,1.3 -2.7,0.8 z"
   id="path443"
   inkscape:connector-curvature="0"
   style="fill:#333333" />
	<path
   class="st0"
   d="m 1129,877.9 -28.3,1.9 c 0,0 -78.7,-74.7 -98.5,-74.3 -19.9,0.4 -128.2,88.7 -128.2,88.7 l -26.6,-44.9 c 0,0 141.7,-103.1 170.7,-86.7 26.3,14.9 110.9,115.3 110.9,115.3 z"
   id="path445"
   inkscape:connector-curvature="0"
   style="fill:#f8c09d" />
	<path
   class="st2"
   d="m 1094.8,940.1 102.2,-1.8 c 1.4,0 2.5,-1.2 2.5,-2.5 l -0.2,-11.4 -107.2,1.9 0.2,11.4 c 0,1.3 1.1,2.4 2.5,2.4 z"
   id="path447"
   inkscape:connector-curvature="0"
   style="fill:#f2f2f2" />
	<path
   class="st2"
   d="m 1072.8,854.5 24,-14.9 32.2,38.3 c 0,0 -2.4,11.4 -14.6,11.4 -12.2,0 -18.2,-9.5 -18.2,-9.5 z"
   id="path449"
   inkscape:connector-curvature="0"
   style="fill:#f2f2f2" />
	<polygon
   class="st22"
   points="1108.6,853.7 1085.8,868.5 1079.9,862.2 1102.8,846.6 "
   id="polygon451"
   style="fill:#1561a0" />
	<path
   class="st22"
   d="m 1096.2,879.8 c 0,0 8.3,3.8 18.1,3.1 9.8,-0.6 14.7,-5 14.7,-5 0,0 15.3,12.7 28.9,11.7 13.5,-1 33.1,-3.1 38.3,10.9 4,10.7 3.7,20.1 3.3,24 -0.1,1.1 -1,1.9 -2,1.9 l -103.8,1.7 c -1.1,0 -2,-0.8 -2.1,-1.9 -0.4,-3.5 -1.1,-11.5 -0.3,-21.4 0.9,-13.3 4.9,-25 4.9,-25 z"
   id="path453"
   inkscape:connector-curvature="0"
   style="fill:#1561a0" />
	<path
   class="st2"
   d="m 1143.5,881.5 c -2,0 -3.5,2.1 -2.8,4 0.8,2.3 1.1,2.9 0.8,5.7 -0.2,1.5 -0.5,2.7 -0.7,3.6 -0.5,1.7 0.7,3.4 2.4,3.7 l 0.5,0.1 c 1.6,0.2 3.1,-0.9 3.4,-2.5 0.6,-4 1.6,-8.8 -1.1,-13.2 -0.4,-0.9 -1.4,-1.4 -2.5,-1.4 z"
   id="path455"
   inkscape:connector-curvature="0"
   style="fill:#f2f2f2" />
	<path
   class="st2"
   d="m 1155.4,885.4 c -2,0 -3.5,2.1 -2.8,4 0.8,2.3 1.1,2.9 0.8,5.7 -0.2,1.5 -0.5,2.7 -0.7,3.6 -0.5,1.7 0.7,3.4 2.4,3.7 l 0.5,0.1 c 1.6,0.2 3.1,-0.9 3.4,-2.5 0.6,-4 1.6,-8.8 -1.1,-13.2 -0.4,-0.9 -1.4,-1.4 -2.5,-1.4 z"
   id="path457"
   inkscape:connector-curvature="0"
   style="fill:#f2f2f2" />
	<path
   class="st2"
   d="m 1169.7,885.7 c -2,0 -3.5,2.1 -2.8,4 0.8,2.3 1.1,2.9 0.8,5.7 -0.2,1.5 -0.5,2.7 -0.7,3.6 -0.5,1.7 0.7,3.4 2.4,3.7 l 0.5,0.1 c 1.6,0.2 3.1,-0.9 3.4,-2.5 0.6,-4 1.6,-8.8 -1.1,-13.2 -0.5,-0.9 -1.4,-1.4 -2.5,-1.4 z"
   id="path459"
   inkscape:connector-curvature="0"
   style="fill:#f2f2f2" />
	<path
   class="st23"
   d="M 1013.1,814.1 964.8,750 823.1,856.3 l 29.1,38.2 c 10.9,14.3 31.3,17.1 45.6,6.3 z"
   id="path461"
   inkscape:connector-curvature="0"
   style="fill:#22b573" />
	<polygon
   class="st24"
   points="989.4,832.1 941,767.8 953.8,758.2 1002.2,822.5 "
   id="polygon463"
   style="fill:#1b965b" />
	<path
   class="st25"
   d="m 640.5,682.8 c 0,0 -8.7,-4.1 -17.8,1.5 -9.1,5.6 -13.7,16.3 -13.7,16.3"
   id="path465"
   inkscape:connector-curvature="0"
   style="fill:none;stroke:#ef937e;stroke-width:5;stroke-linecap:round;stroke-miterlimit:10" />
	<path
   class="st26"
   d="m 788.5,776.5 c 0,0 -11.6,6 -23.9,2.1 -12.3,-3.9 -16.5,-13.3 -16.5,-13.3"
   id="path467"
   inkscape:connector-curvature="0"
   style="fill:none;stroke:#e6e6e6;stroke-width:5;stroke-miterlimit:10" />
	<path
   class="st26"
   d="m 785.5,794.5 c 0,0 -11.6,6 -23.9,2.1 -12.3,-3.9 -16.5,-13.3 -16.5,-13.3"
   id="path469"
   inkscape:connector-curvature="0"
   style="fill:none;stroke:#e6e6e6;stroke-width:5;stroke-miterlimit:10" />
	<path
   class="st0"
   d="m 448.9,750.5 v 0 c 4.2,-9.3 15.1,-13.4 24.4,-9.2 l 104.1,46.9 c 9.3,4.2 13.4,15.1 9.2,24.4 v 0 c -4.2,9.3 -15.1,13.4 -24.4,9.2 L 458.1,774.9 c -9.3,-4.2 -13.4,-15.1 -9.2,-24.4 z"
   id="path471"
   inkscape:connector-curvature="0"
   style="fill:#f8c09d" />
	<path
   class="st0"
   d="m 495.2,622.7 v 0 c 9.9,2.2 16.2,12.1 14,22 l -26.9,116.6 c -2.2,9.9 -12.1,16.2 -22,14 v 0 c -9.9,-2.2 -16.2,-12.1 -14,-22 l 26.9,-116.6 c 2.2,-10 12,-16.3 22,-14 z"
   id="path473"
   inkscape:connector-curvature="0"
   style="fill:#f8c09d" />
	<path
   class="st21"
   d="m 540.8,755.3 -27.6,60.9 64.3,29.1 c 16.8,7.6 36.6,0.2 44.2,-16.6 v 0 c 7.6,-16.8 0.2,-36.6 -16.6,-44.2 z"
   id="path475"
   inkscape:connector-curvature="0"
   style="fill:#065082" />
	<g
   id="g491">
		<path
   class="st0"
   d="M 512.9,643.5 514,631.9 476.5,628 c -4,-0.4 -7.6,2.5 -8,6.5 l -1,9.8 c -0.4,4.2 2.6,8.1 6.9,8.5 l 24,2.5 c 7.3,0.7 13.8,-4.5 14.5,-11.8 z"
   id="path477"
   inkscape:connector-curvature="0"
   style="fill:#f8c09d" />
		<path
   class="st0"
   d="m 474.1,638.2 v 0 c 3.2,0.3 6.1,-2 6.5,-5.3 l 1.4,-13.6 c 0.3,-3.2 -2,-6.1 -5.3,-6.5 v 0 c -3.2,-0.3 -6.1,2 -6.5,5.3 l -1.4,13.6 c -0.3,3.3 2,6.2 5.3,6.5 z"
   id="path479"
   inkscape:connector-curvature="0"
   style="fill:#f8c09d" />
		<path
   class="st0"
   d="m 486.1,637 v 0 c 3.2,0.3 6.1,-2 6.5,-5.3 l 1.4,-13.6 c 0.3,-3.2 -2,-6.1 -5.3,-6.5 v 0 c -3.2,-0.3 -6.1,2 -6.5,5.3 l -1.4,13.6 c -0.3,3.2 2,6.1 5.3,6.5 z"
   id="path481"
   inkscape:connector-curvature="0"
   style="fill:#f8c09d" />
		<path
   class="st0"
   d="m 507.9,638.7 v 0 c 3,0.3 5.6,-1.8 5.9,-4.8 l 1.3,-12.1 c 0.3,-3 -1.8,-5.6 -4.8,-5.9 v 0 c -3,-0.3 -5.6,1.8 -5.9,4.8 l -1.3,12.1 c -0.3,2.9 1.8,5.6 4.8,5.9 z"
   id="path483"
   inkscape:connector-curvature="0"
   style="fill:#f8c09d" />
		<path
   class="st0"
   d="m 497.2,639.1 v 0 c 3,0.3 5.6,-1.8 5.9,-4.8 l 1.5,-14.6 c 0.3,-3 -1.8,-5.6 -4.8,-5.9 v 0 c -3,-0.3 -5.6,1.8 -5.9,4.8 l -1.5,14.6 c -0.3,2.9 1.8,5.6 4.8,5.9 z"
   id="path485"
   inkscape:connector-curvature="0"
   style="fill:#f8c09d" />
		<path
   class="st0"
   d="m 467.1,633.3 v 0 c -0.2,3.2 2.2,6.1 5.5,6.3 l 13,0.8 c 3.2,0.2 6.1,-2.2 6.3,-5.5 v 0 c 0.2,-3.2 -2.2,-6.1 -5.5,-6.3 l -13,-0.8 c -3.2,-0.2 -6.1,2.2 -6.3,5.5 z"
   id="path487"
   inkscape:connector-curvature="0"
   style="fill:#f8c09d" />
		<path
   class="st0"
   d="m 473.5,652.6 v 0 c 3.2,-0.7 5.2,-3.8 4.5,-7 l -2.9,-13.2 c -0.7,-3.2 -3.8,-5.2 -7,-4.5 v 0 c -3.2,0.7 -5.2,3.8 -4.5,7 l 2.9,13.2 c 0.7,3.2 3.8,5.2 7,4.5 z"
   id="path489"
   inkscape:connector-curvature="0"
   style="fill:#f8c09d" />
	</g>
	<path
   class="st1"
   d="m 1282.1,814 -36.1,88 c 0,0 6.4,-7.8 43.5,0.6 33.8,7.6 35.4,15.4 35.4,15.4 l 76.6,-52.4 z"
   id="path493"
   inkscape:connector-curvature="0"
   style="fill:#d3222f" />
	<path
   class="st0"
   d="m 1285.7,777.4 5.5,-112.3 -66.4,-2 -2.1,112.2 c -0.3,17.6 13.8,32 31.4,32 v 0 c 16.9,0.1 30.7,-13.1 31.6,-29.9 z"
   id="path495"
   inkscape:connector-curvature="0"
   style="fill:#f8c09d" />
	<path
   class="st0"
   d="m 1267.7,756.7 v 0 c 13.2,4.7 20,19.2 15.1,32.3 l -74.5,113.5 v 0 l -34.2,-13.9 48.7,-113.3 c 3.8,-14 22.8,-32.6 44.9,-18.6 z"
   id="path497"
   inkscape:connector-curvature="0"
   style="fill:#f8c09d" />
	<path
   class="st12"
   d="m 1288.9,739.5 -66.8,-2.3 2.4,-70.5 c 0.6,-18.4 16.1,-32.9 34.5,-32.3 v 0 c 18.4,0.6 32.9,16.1 32.3,34.5 z"
   id="path499"
   inkscape:connector-curvature="0"
   style="fill:#e6e6e6" />
	<path
   class="st0"
   d="m 1180.5,873.7 c 0,0 -29.4,-8.3 -39.9,7.9 -7.7,11.9 -10.3,16.8 -10.1,25.8 0.2,8.6 53,14.2 54.3,3.6 1.3,-10.5 13.5,-2.8 20.9,-6.5 7.4,-3.7 5.4,-18.4 -3.4,-22 -8.9,-3.6 -21.8,-8.8 -21.8,-8.8 z"
   id="path501"
   inkscape:connector-curvature="0"
   style="fill:#f8c09d" />
	<g
   id="g513">
		<path
   class="st0"
   d="m 1130.4,903.5 0.3,11.8 c 0.1,2.3 2,4.2 4.3,4.1 l 49.8,-1.3 c 2.3,-0.1 4.2,-2 4.1,-4.3 l -0.3,-11.8 c -0.1,-5.4 -4.6,-9.7 -10,-9.5 l -38.6,1 c -5.4,0.2 -9.7,4.6 -9.6,10 z"
   id="path503"
   inkscape:connector-curvature="0"
   style="fill:#f8c09d" />
		<path
   class="st0"
   d="m 1181.4,896.8 v 0 c -4,0.1 -7.2,3.4 -7.1,7.5 v 17.1 c 0.1,4 3.4,7.2 7.5,7.1 v 0 c 4,-0.1 7.2,-3.4 7.1,-7.5 v -17.1 c -0.1,-4 -3.5,-7.2 -7.5,-7.1 z"
   id="path505"
   inkscape:connector-curvature="0"
   style="fill:#f8c09d" />
		<path
   class="st0"
   d="m 1167,903.7 v 0 c -4,0.1 -7.2,3.4 -7.1,7.5 l 0.4,17.1 c 0.1,4 3.4,7.2 7.5,7.1 v 0 c 4,-0.1 7.2,-3.4 7.1,-7.5 l -0.4,-17.1 c -0.1,-4 -3.5,-7.2 -7.5,-7.1 z"
   id="path507"
   inkscape:connector-curvature="0"
   style="fill:#f8c09d" />
		<path
   class="st0"
   d="m 1152.3,900.4 v 0 c -4,0.1 -7.2,3.4 -7.1,7.5 l 0.4,17.1 c 0.1,4 3.4,7.2 7.5,7.1 v 0 c 4,-0.1 7.2,-3.4 7.1,-7.5 l -0.4,-17.1 c -0.1,-4 -3.4,-7.2 -7.5,-7.1 z"
   id="path509"
   inkscape:connector-curvature="0"
   style="fill:#f8c09d" />
		<path
   class="st0"
   d="m 1137.6,895.4 v 0 c -4,0.1 -7.2,3.4 -7.1,7.5 l 0.4,17.1 c 0.1,4 3.4,7.2 7.5,7.1 v 0 c 4,-0.1 7.2,-3.4 7.1,-7.5 l -0.4,-17.1 c -0.1,-4 -3.5,-7.2 -7.5,-7.1 z"
   id="path511"
   inkscape:connector-curvature="0"
   style="fill:#f8c09d" />
	</g>
</g>
</svg>