<?xml version="1.0" encoding="UTF-8" standalone="no"?>
<!-- Generator: Adobe Illustrator 19.2.0, SVG Export Plug-In . SVG Version: 6.00 Build 0)  -->

<svg
   xmlns:dc="http://purl.org/dc/elements/1.1/"
   xmlns:cc="http://creativecommons.org/ns#"
   xmlns:rdf="http://www.w3.org/1999/02/22-rdf-syntax-ns#"
   xmlns:svg="http://www.w3.org/2000/svg"
   xmlns="http://www.w3.org/2000/svg"
   xmlns:sodipodi="http://sodipodi.sourceforge.net/DTD/sodipodi-0.dtd"
   xmlns:inkscape="http://www.inkscape.org/namespaces/inkscape"
   version="1.1"
   id="Layer_1"
   x="0px"
   y="0px"
   viewBox="0 0 810.97968 421.79764"
   xml:space="preserve"
   sodipodi:docname="Man_Doing_Push_Ups_Cartoon.svg"
   width="810.97968"
   height="421.79764"
   inkscape:version="0.92.3 (2405546, 2018-03-11)"><metadata
   id="metadata87"><rdf:RDF><cc:Work
       rdf:about=""><dc:format>image/svg+xml</dc:format><dc:type
         rdf:resource="http://purl.org/dc/dcmitype/StillImage" /></cc:Work></rdf:RDF></metadata><defs
   id="defs85" /><sodipodi:namedview
   pagecolor="#ffffff"
   bordercolor="#666666"
   borderopacity="1"
   objecttolerance="10"
   gridtolerance="10"
   guidetolerance="10"
   inkscape:pageopacity="0"
   inkscape:pageshadow="2"
   inkscape:window-width="640"
   inkscape:window-height="480"
   id="namedview83"
   showgrid="false"
   inkscape:zoom="0.16614583"
   inkscape:cx="405.45185"
   inkscape:cy="373.87489"
   inkscape:window-x="0"
   inkscape:window-y="30"
   inkscape:window-maximized="0"
   inkscape:current-layer="Layer_1" />
<g
   id="g80"
   transform="translate(-554.54815,-492.07726)">
	<path
   class="st0"
   d="M 984.7,654.1 967.8,757.3 816.2,727.7 c -19.5,-3.2 -62.7,-15.9 -60.6,-28.3 l 9.5,-58.2 c 2,-12.4 19.5,-19.9 39,-16.7 z"
   id="path2"
   inkscape:connector-curvature="0"
   style="fill:#1561a0" />
	<path
   class="st1"
   d="m 1057.4,719.1 v 0 c -4.7,28.4 -31.8,47.9 -60.2,43.2 l -29.5,-4.8 17,-103.4 29.5,4.8 c 28.4,4.6 47.9,31.7 43.2,60.2 z"
   id="path4"
   inkscape:connector-curvature="0"
   style="fill:#22b573" />
	<path
   class="st2"
   d="M 760.6,696.1 C 785.9,670.3 790.8,624.2 762,596 l -86.6,-84.9 -101.7,103.8 86.6,84.9 c 28.8,28.2 75,22.2 100.3,-3.7 z"
   id="path6"
   inkscape:connector-curvature="0"
   style="fill:#f8c09d" />
	<path
   class="st3"
   d="m 716.8,598.4 c 0,0 0.2,0.3 18.2,0 15.9,-0.2 34.3,6.1 34.3,6.1 0,0 3.8,-18.9 -14,-37.8 -14,-14.9 -29.4,-30 -29.4,-30 l -35.3,36 z"
   id="path8"
   inkscape:connector-curvature="0"
   style="fill:#333333" />
	
		<circle
   transform="matrix(0.7001,-0.714,0.714,0.7001,-206.352,697.3693)"
   class="st2"
   cx="727.09998"
   cy="594.40002"
   id="ellipse10"
   r="20.700001" />
	<path
   class="st4"
   d="m 732,593.4 c -2.9,-2.8 -7.5,-2.8 -10.4,0.1 -0.8,0.8 -1.3,1.7 -1.7,2.7 -0.6,-2.4 0,-5.1 1.8,-7 2.8,-2.9 7.5,-2.9 10.4,-0.1 2.1,2.1 2.7,5 1.8,7.6 -0.3,-1.2 -0.9,-2.3 -1.9,-3.3 z"
   id="path12"
   inkscape:connector-curvature="0"
   style="fill:#ef937e" />
	<path
   class="st4"
   d="m 664.9,649.7 10.7,10.5 c 0.5,0.5 0.3,1.4 -0.2,1.9 l -6.2,6.3 c -1.7,1.7 -4.6,0.7 -4.9,-1.7 l -1.6,-15.9 c -0.1,-1.2 1.4,-1.9 2.2,-1.1 z"
   id="path14"
   inkscape:connector-curvature="0"
   style="fill:#ef937e" />
	<path
   class="st3"
   d="m 666.4,519.6 0.3,0.2 7,-7.3 c 7.4,-7.7 19.7,-7.9 27.4,-0.4 v 0 l 9.5,9.3 24.5,24 -22.2,23.9 -7.3,-6.8 c -4.9,-4.5 -12.4,-4.2 -16.9,0.6 L 622.8,634 c -8.7,9.3 -23.4,9.9 -32.7,1.2 -0.1,0.3 66.9,-124.3 76.3,-115.6 z"
   id="path16"
   inkscape:connector-curvature="0"
   style="fill:#333333" />
	<path
   class="st3"
   d="m 666.6,519.4 c -10.1,-12.5 -18.1,-17.4 -32,-15.8 -9,1 -18.9,8.7 -22,12.1 -2.1,2.2 -3.8,4.8 -4.7,7.8 -1.8,6.3 1.4,13.8 7.3,17.1 -5.6,-0.4 -11.2,0.1 -16.6,1.3 -6.9,1.6 -13.7,4.9 -17.2,10.9 -3.5,6 -2.2,15.3 4.1,18.9 -4,1.4 -8.3,1.7 -12.3,2.9 -6.5,1.9 -12.1,6.2 -15.6,11.9 -1.3,2.1 -2.3,4.5 -2.8,7 -0.9,5.1 0.7,10.5 3.4,15 2.7,4.5 18.9,28 41.4,32 2.9,0.5 8.9,-8.6 10.6,-10.9 z"
   id="path18"
   inkscape:connector-curvature="0"
   style="fill:#333333" />
	
		<rect
   x="581"
   y="576"
   transform="matrix(-0.7001,0.714,-0.714,-0.7001,1545.7781,526.7885)"
   class="st0"
   width="162.5"
   height="24"
   id="rect20" />
	<path
   class="st5"
   d="m 753.5,521.2 c 0,0 -0.5,-14.6 5.6,-18.9 6.1,-4.3 12.2,3.3 6.6,6.5 -5.7,3.2 -12.2,12.4 -12.2,12.4 z"
   id="path22"
   inkscape:connector-curvature="0"
   style="fill:#f2f2f2" />
	<path
   class="st5"
   d="m 760.7,548.4 c 0,0 8.4,-12 15.8,-11.7 7.4,0.2 7.8,10 1.4,9.2 -6.5,-0.9 -17.2,2.5 -17.2,2.5 z"
   id="path24"
   inkscape:connector-curvature="0"
   style="fill:#f2f2f2" />
	<path
   class="st5"
   d="m 657.5,729.9 c 0,0 -8.8,13.4 -4.8,19.8 4,6.4 12.1,4.1 9.2,-2 -3,-6.7 -4.4,-17.8 -4.4,-17.8 z"
   id="path26"
   inkscape:connector-curvature="0"
   style="fill:#f2f2f2" />
	<path
   class="st5"
   d="m 647.5,708.6 c 0,0 -9.9,7.3 -11.7,13.7 -1.8,6.4 7.8,8.8 8.3,0.9 0.3,-7.8 3.4,-14.6 3.4,-14.6 z"
   id="path28"
   inkscape:connector-curvature="0"
   style="fill:#f2f2f2" />
	<path
   class="st5"
   d="m 726.4,514.5 c 0,0 -5.6,-9.6 -5.1,-15.6 1.1,-11.3 15.8,-6.8 10.4,0.8 -4.4,6.1 -5.3,14.8 -5.3,14.8 z"
   id="path30"
   inkscape:connector-curvature="0"
   style="fill:#f2f2f2" />
	<path
   class="st3"
   d="m 643.3,680.1 v 0 c -1.1,-0.2 -1.9,-1.2 -1.7,-2.3 0.3,-1.6 0.7,-3.9 1.1,-5.4 0.5,-1.7 1.2,-3.3 1.9,-4.7 -1.2,0.2 -2.7,0.7 -4.3,1.6 -2.1,1.2 -3.2,2.4 -3.9,3.2 -0.5,0.6 -1.3,0.9 -2.1,0.7 v 0 c -1.4,-0.4 -1.9,-2 -1.1,-3.1 0.9,-1.2 2.5,-2.8 5,-4.2 5.3,-3.1 10,-2.4 10.2,-2.3 v 0 c 1.4,0.2 2.1,1.9 1.3,3.1 v 0 c 0,0 -2.3,3.4 -3.2,6.8 -0.4,1.4 -0.8,3.5 -1,5 -0.2,1 -1.2,1.8 -2.2,1.6 z"
   id="path32"
   inkscape:connector-curvature="0"
   style="fill:#333333" />
	<path
   class="st3"
   d="m 693.6,628.8 v 0 c -0.2,-1.1 -1.2,-1.9 -2.3,-1.6 -1.6,0.3 -3.8,0.8 -5.4,1.2 -1.7,0.5 -3.3,1.3 -4.6,2 0.2,-1.3 0.7,-2.8 1.6,-4.3 1.2,-2.1 2.4,-3.3 3.2,-3.9 0.6,-0.5 0.9,-1.3 0.7,-2.1 v 0 c -0.4,-1.4 -2,-1.9 -3.2,-1 -1.2,0.9 -2.7,2.5 -4.1,5.1 -3,5.3 -2.2,10.1 -2.1,10.3 v 0 c 0.3,1.4 1.9,2.1 3.1,1.3 v 0 c 0,0 3.4,-2.4 6.7,-3.4 1.4,-0.4 3.5,-0.8 5,-1.1 0.8,-0.4 1.5,-1.4 1.4,-2.5 z"
   id="path34"
   inkscape:connector-curvature="0"
   style="fill:#333333" />
	<g
   id="g52">
		<polygon
   class="st2"
   points="1000.8,682.9 991.6,739.1 1290.3,781.1 1294.8,753.5 "
   id="polygon36"
   style="fill:#f8c09d" />
		<path
   class="st5"
   d="M 1365.5,759.6 1349,860.4 c -0.2,1.4 -1.5,2.3 -2.9,2.1 l -11.2,-1.8 17.4,-105.8 11.2,1.8 c 1.3,0.2 2.2,1.5 2,2.9 z"
   id="path38"
   inkscape:connector-curvature="0"
   style="fill:#f2f2f2" />
		<polygon
   class="st5"
   points="1305.7,785.2 1311.6,757.4 1267.3,747 1261.1,778.9 "
   id="polygon40"
   style="fill:#f2f2f2" />
		<polygon
   class="st0"
   points="1280,781.3 1285.5,751.3 1276.6,749.2 1270.7,780.2 "
   id="polygon42"
   style="fill:#1561a0" />
		<path
   class="st0"
   d="m 1305,756.6 c 0,0 3.2,4.3 1.1,13.9 -2.1,9.6 -7.1,13.8 -7.1,13.8 0,0 10.3,17 7.4,30.2 -2.9,13.2 -7.8,32.3 5.2,39.5 10,5.5 19.4,6.6 23.3,6.8 1.1,0.1 2,-0.7 2.2,-1.8 l 16.7,-102.5 c 0.2,-1.1 -0.5,-2.1 -1.5,-2.4 -3.4,-0.9 -11.3,-2.7 -21.1,-3.4 -13.4,-0.7 -26.2,5.9 -26.2,5.9 z"
   id="path44"
   inkscape:connector-curvature="0"
   style="fill:#1561a0" />
		<path
   class="st5"
   d="m 1300.5,799.3 c 0.3,-2 2.5,-3.1 4.3,-2.2 2.1,1.1 2.8,1.5 5.5,1.6 1.5,0 2.7,-0.1 3.7,-0.2 1.8,-0.2 3.3,1.2 3.3,2.9 v 0.6 c 0,1.6 -1.3,3 -2.9,3 -4,0 -9,0.3 -12.9,-3 -0.8,-0.6 -1.2,-1.6 -1,-2.7 z"
   id="path46"
   inkscape:connector-curvature="0"
   style="fill:#f2f2f2" />
		<path
   class="st5"
   d="m 1302.6,811.7 c 0.3,-2 2.5,-3.1 4.3,-2.2 2.1,1.1 2.8,1.5 5.5,1.6 1.5,0 2.7,-0.1 3.7,-0.2 1.8,-0.2 3.3,1.2 3.3,2.9 v 0.6 c 0,1.6 -1.3,3 -2.9,3 -4,0 -9,0.3 -12.9,-3 -0.8,-0.6 -1.2,-1.7 -1,-2.7 z"
   id="path48"
   inkscape:connector-curvature="0"
   style="fill:#f2f2f2" />
		<path
   class="st5"
   d="m 1301.1,823.9 c 0.3,-2 2.5,-3.1 4.3,-2.2 2.1,1.1 2.8,1.5 5.5,1.6 1.5,0 2.7,-0.1 3.7,-0.2 1.8,-0.2 3.3,1.2 3.3,2.9 v 0.6 c 0,1.6 -1.3,3 -2.9,3 -4,0 -9,0.3 -12.9,-3 -0.7,-0.6 -1.1,-1.7 -1,-2.7 z"
   id="path50"
   inkscape:connector-curvature="0"
   style="fill:#f2f2f2" />
	</g>
	<polygon
   class="st1"
   points="967.8,757.3 981.2,678 1155.6,706.6 1142.6,785.8 "
   id="polygon54"
   style="fill:#22b573" />
	<polygon
   class="st6"
   points="1126.6,701.6 1113.6,781 1129.4,783.6 1142.4,704.2 "
   id="polygon56"
   style="fill:#1b965b" />
	<path
   class="st2"
   d="m 842.5,816 v 0 c -10.2,0.2 -18.6,-7.9 -18.8,-18.1 l -1.9,-91.2 c -0.2,-10.2 7.9,-18.6 18.1,-18.8 v 0 c 10.2,-0.2 18.6,7.9 18.8,18.1 l 1.9,91.2 c 0.2,10.2 -7.9,18.6 -18.1,18.8 z"
   id="path58"
   inkscape:connector-curvature="0"
   style="fill:#f8c09d" />
	<path
   class="st2"
   d="m 843.3,900.7 v 0 c -10.2,0 -18.5,-8.2 -18.5,-18.4 L 824,802.9 c 0,-10.2 8.2,-18.5 18.4,-18.5 v 0 c 10.2,0 18.5,8.2 18.5,18.4 l 0.8,79.4 c 0,10.2 -8.2,18.5 -18.4,18.5 z"
   id="path60"
   inkscape:connector-curvature="0"
   style="fill:#f8c09d" />
	<path
   class="st7"
   d="m 807.8,754 66.8,-1.4 -1.4,-70.5 C 872.8,663.6 857.6,649 839.1,649.4 v 0 c -18.5,0.4 -33.1,15.6 -32.7,34.1 z"
   id="path62"
   inkscape:connector-curvature="0"
   style="fill:#065082" />
	<g
   id="g76">
		<path
   class="st2"
   d="m 835.4,896.8 3,7.5 -34,9.3 c -3,0.8 -6.1,-0.2 -6.9,-2.3 v 0 c -0.8,-2.1 1,-4.4 4,-5.3 z"
   id="path64"
   inkscape:connector-curvature="0"
   style="fill:#f8c09d" />
		<path
   class="st2"
   d="m 832.2,889 2.6,7.6 -41.5,10.2 c -3,0.7 -6.1,-0.4 -6.8,-2.5 v 0 c -0.7,-2.1 1.2,-4.4 4.2,-5.2 z"
   id="path66"
   inkscape:connector-curvature="0"
   style="fill:#f8c09d" />
		<path
   class="st2"
   d="m 825.9,883.1 1.4,7.9 -42.3,7.1 c -3.1,0.5 -5.9,-0.8 -6.3,-3 v 0 c -0.4,-2.2 1.8,-4.4 4.9,-4.9 z"
   id="path68"
   inkscape:connector-curvature="0"
   style="fill:#f8c09d" />
		<path
   class="st2"
   d="m 830.2,876.7 -0.7,8.1 -42.6,1.4 c -3.1,0.1 -5.5,-1.6 -5.3,-3.9 v 0 c 0.2,-2.2 2.9,-4.1 6,-4.2 z"
   id="path70"
   inkscape:connector-curvature="0"
   style="fill:#f8c09d" />
		<path
   class="st2"
   d="m 837.7,874.1 -5.7,7.4 -22.2,-7.5 c -2.7,-0.9 -3.6,-3.3 -2,-5.4 v 0 c 1.6,-2 5,-3 7.7,-2.1 z"
   id="path72"
   inkscape:connector-curvature="0"
   style="fill:#f8c09d" />
		<path
   class="st2"
   d="m 839.3,872 -15.4,2.6 c -2.8,0.5 -4.9,1.8 -4.7,2.9 l 5,27.5 c 0.2,1.1 2.7,1.7 5.5,1.2 l 15.4,-2.6 c 10.6,-1.8 17,-15.7 15.8,-23.8 l -0.9,-3.3 c -0.8,-4.2 -10.1,-6.3 -20.7,-4.5 z"
   id="path74"
   inkscape:connector-curvature="0"
   style="fill:#f8c09d" />
	</g>
	<path
   class="st8"
   stroke-miterlimit="10"
   d="m 684.9,695.7 c 0,0 -1.4,-9.5 6.7,-16.6 8.1,-7 19.6,-8.3 19.6,-8.3"
   id="path78"
   inkscape:connector-curvature="0"
   style="stroke:#ef937e;stroke-width:5;stroke-linecap:round;stroke-miterlimit:10" />
</g>
</svg>