<?xml version="1.0" encoding="UTF-8" standalone="no"?>
<!-- Generator: Adobe Illustrator 19.2.0, SVG Export Plug-In . SVG Version: 6.00 Build 0)  -->

<svg
   xmlns:dc="http://purl.org/dc/elements/1.1/"
   xmlns:cc="http://creativecommons.org/ns#"
   xmlns:rdf="http://www.w3.org/1999/02/22-rdf-syntax-ns#"
   xmlns:svg="http://www.w3.org/2000/svg"
   xmlns="http://www.w3.org/2000/svg"
   xmlns:sodipodi="http://sodipodi.sourceforge.net/DTD/sodipodi-0.dtd"
   xmlns:inkscape="http://www.inkscape.org/namespaces/inkscape"
   version="1.1"
   id="Layer_1"
   x="0px"
   y="0px"
   viewBox="0 0 424.85153 888.68768"
   xml:space="preserve"
   sodipodi:docname="Man_Doing_Warm_Up_Exercise_Cartoon.svg"
   width="424.85153"
   height="888.68768"
   inkscape:version="0.92.3 (2405546, 2018-03-11)"><metadata
   id="metadata649"><rdf:RDF><cc:Work
       rdf:about=""><dc:format>image/svg+xml</dc:format><dc:type
         rdf:resource="http://purl.org/dc/dcmitype/StillImage" /></cc:Work></rdf:RDF></metadata><defs
   id="defs647" /><sodipodi:namedview
   pagecolor="#ffffff"
   bordercolor="#666666"
   borderopacity="1"
   objecttolerance="10"
   gridtolerance="10"
   guidetolerance="10"
   inkscape:pageopacity="0"
   inkscape:pageshadow="2"
   inkscape:window-width="640"
   inkscape:window-height="480"
   id="namedview645"
   showgrid="false"
   inkscape:zoom="0.16614583"
   inkscape:cx="119.27576"
   inkscape:cy="459.20111"
   inkscape:window-x="0"
   inkscape:window-y="30"
   inkscape:window-maximized="0"
   inkscape:current-layer="Layer_1" />
<path
   class="st0" fill="#F8C09D"
   d="m 8.3757601,444.98659 v 0 c 6.6999999,7.7 18.2999999,8.5 25.9999999,1.8 l 74.9,-65 c 7.7,-6.7 8.5,-18.3 1.8,-26 v 0 c -6.7,-7.7 -18.3,-8.5 -26,-1.8 0,0 -49.9,43.3 -74.9,65 -7.5999999,6.6 -8.4999999,18.3 -1.7999999,26 z"
   id="path526"
   inkscape:connector-curvature="0"
   />
<path
   class="st0" fill="#F8C09D"
   d="m 8.2757601,420.68659 v 0 c -8,6.3 -9.5,17.8 -3.2,25.9 l 84.2999999,108.4 c 6.3,8 17.8,9.5 25.9,3.2 v 0 c 8,-6.3 9.5,-17.8 3.2,-25.9 l -84.3,-108.4 c -6.2,-8 -17.8,-9.5 -25.8999999,-3.2 z"
   id="path528"
   inkscape:connector-curvature="0"
   />
<path
   class="st0" fill="#F8C09D"
   d="m 261.47576,155.18659 v 0 c -10,-1.9 -19.7,4.6 -21.6,14.7 l -18.6,97.4 c -1.9,10 4.6,19.7 14.7,21.6 v 0 c 10,1.9 19.7,-4.6 21.6,-14.7 0,0 12.4,-64.9 18.7,-97.4 1.8,-10 -4.7,-19.7 -14.8,-21.6 z"
   id="path530"
   inkscape:connector-curvature="0"
   />
<path
   class="st0" fill="#F8C09D"
   d="m 266.07576,186.88659 v 0 c 9.2,-4.4 13,-15.5 8.6,-24.7 l -59.9,-123.599996 c -4.4,-9.2 -15.5,-13 -24.7,-8.6 v 0 c -9.2,4.4 -13,15.5 -8.6,24.7 l 59.9,123.599996 c 4.5,9.2 15.6,13.1 24.7,8.6 z"
   id="path532"
   inkscape:connector-curvature="0"
   />
<g
   id="g546"
   transform="translate(-840.72424,-110.51341)">
	<path
   class="st0" fill="#F8C09D"
   d="m 1046,152.6 10.4,-4.6 -14.4,-32.5 c -1.3,-2.9 -4.6,-4.2 -7.5,-2.9 v 0 c -2.9,1.3 -4.2,4.6 -2.9,7.5 z"
   id="path534"
   inkscape:connector-curvature="0"
   />
	<path
   class="st0" fill="#F8C09D"
   d="m 1035.1,157.3 10.2,-5 -18.7,-38.6 c -1.4,-2.8 -4.8,-4 -7.6,-2.6 v 0 c -2.8,1.4 -4,4.8 -2.6,7.6 z"
   id="path536"
   inkscape:connector-curvature="0"
   />
	<path
   class="st0" fill="#F8C09D"
   d="m 1024,158.1 9.6,-6 -22.7,-36.4 c -1.7,-2.7 -5.2,-3.5 -7.8,-1.8 v 0 c -2.7,1.7 -3.5,5.2 -1.8,7.8 z"
   id="path538"
   inkscape:connector-curvature="0"
   />
	<path
   class="st0" fill="#F8C09D"
   d="m 1020.2,166.8 8.4,-7.7 -29.1,-31.6 c -2.1,-2.3 -5.7,-2.5 -8,-0.3 v 0 c -2.3,2.1 -2.5,5.7 -0.3,8 z"
   id="path540"
   inkscape:connector-curvature="0"
   />
	<path
   class="st0" fill="#F8C09D"
   d="m 1022.8,174.5 4,-10.6 -24.2,-9.1 c -2.9,-1.1 -6.2,0.4 -7.3,3.3 v 0 c -1.1,2.9 0.4,6.2 3.3,7.3 z"
   id="path542"
   inkscape:connector-curvature="0"
   />
	<path
   class="st0" fill="#F8C09D"
   d="m 1017.1,170.2 -4.8,-7.7 c -0.9,-1.4 -0.5,-3.3 1,-4.1 l 33.6,-21 c 1.4,-0.9 3.3,-0.5 4.1,1 l 4.8,7.7 c 3.3,5.3 1.7,12.3 -3.6,15.6 l -19.5,12.2 c -5.3,3.2 -12.3,1.6 -15.6,-3.7 z"
   id="path544"
   inkscape:connector-curvature="0"
   />
</g>
<path
   class="st1" fill="#065082"
   d="m 280.37576,247.08659 -65.9,-11.3 -11.9,69.5 c -3.1,18.2 9.1,35.5 27.3,38.6 v 0 c 18.2,3.1 35.5,-9.1 38.6,-27.3 z"
   id="path548"
   inkscape:connector-curvature="0"
   />
<polygon
   class="st0" fill="#F8C09D"
   points="988.1,630.5 1045.1,630.5 952.4,900.3 919.9,899.8 "
   id="polygon550"
   transform="translate(-840.72424,-110.51341)" />
<polygon
   class="st2" fill="#F2F2F2"
   points="909.2,944.3 937.2,945.7 952.4,900.3 919.9,899.3 "
   id="polygon552"
   transform="translate(-840.72424,-110.51341)" />
<polygon
   class="st3" fill="#1561A0"
   points="915.7,918.4 946.2,918.9 949.4,909.4 917.9,908.7 "
   id="polygon554"
   transform="translate(-840.72424,-110.51341)" />
<path
   class="st3" fill="#1561A0"
   d="m 98.27576,828.48659 c 0,0 -3.8,3.8 -13.6,3.4 -9.8,-0.4 -14.8,-4.7 -14.8,-4.7 0,0 -15.1,13 -28.6,12.2 -13.5,-0.8 -33.0999999,-2.5 -38.0999999,11.6 -5,14.1 -2.6,25.9 -2.6,25.9 l 107.4999999,-0.1 c 0,0 1.4,-10 0.1,-23.3 -1.3,-13.3 -9.9,-25 -9.9,-25 z"
   id="path556"
   inkscape:connector-curvature="0"/>
<path
   class="st2" fill="#F2F2F2"
   d="m 55.37576,830.98659 c 2,0 3.5,2 2.8,3.9 -0.8,2.3 -1.1,3 -0.7,5.7 0.2,1.5 0.5,2.7 0.8,3.6 0.5,1.7 -0.6,3.4 -2.4,3.7 l -0.5,0.1 c -1.6,0.3 -3.2,-0.8 -3.4,-2.4 -0.7,-4 -1.8,-8.8 0.8,-13.2 0.6,-0.8 1.6,-1.4 2.6,-1.4 z"
   id="path558"
   inkscape:connector-curvature="0"
   />
<path
   class="st2" fill="#F2F2F2"
   d="m 43.57576,835.08659 c 2,0 3.5,2 2.8,3.9 -0.8,2.3 -1.1,3 -0.7,5.7 0.2,1.5 0.5,2.7 0.8,3.6 0.5,1.7 -0.6,3.4 -2.4,3.7 l -0.5,0.1 c -1.6,0.3 -3.2,-0.8 -3.4,-2.4 -0.7,-4 -1.8,-8.8 0.8,-13.2 0.5,-0.8 1.5,-1.4 2.6,-1.4 z"
   id="path560"
   inkscape:connector-curvature="0"/>
<path
   class="st2" fill="#F2F2F2"
   d="m 31.27576,835.58659 c 2,0 3.5,2 2.8,3.9 -0.8,2.3 -1.1,3 -0.7,5.7 0.2,1.5 0.5,2.7 0.8,3.6 0.5,1.7 -0.6,3.4 -2.4,3.7 l -0.5,0.1 c -1.6,0.3 -3.2,-0.8 -3.4,-2.4 -0.7,-4 -1.8,-8.8 0.8,-13.2 0.6,-0.8 1.6,-1.4 2.6,-1.4 z"
   id="path562"
   inkscape:connector-curvature="0"
    />
<rect
   x="1.1757845"
   y="876.78656"
   class="st2"
   fill="#F2F2F2"
   width="107.2"
   height="11.9"
   id="rect564"
   />
<path
   class="st4" fill="#22B573"
   d="m 134.07576,519.98659 c 30.5,-35.5 92.6,-3 78.5,41.7 -0.3,0.9 -0.6,1.8 -0.9,2.7 -24.1,72.7 -40,119.4 -40,119.4 l -103.2,-17.3 c 0,0 14.8,-43.3 34.5,-92.1 4.7,-11.7 19,-40.4 31.1,-54.4 z"
   id="path566"
   inkscape:connector-curvature="0"
   />
<polygon
   class="st5" fill="#1B965B"
   points="920.6,746 1022.7,764.4 1017.6,779.3 915.1,760.8 "
   id="polygon568"
   transform="translate(-840.72424,-110.51341)" />
<polygon
   class="st0" fill="#F8C09D"
   points="1118.1,630.5 1061.1,630.5 1153.9,900.3 1186.4,899.8 "
   id="polygon570"
   transform="translate(-840.72424,-110.51341)" />
<polygon
   class="st2" fill="#F2F2F2"
   points="1197,944.3 1169,945.7 1153.9,900.3 1186.4,899.3 "
   id="polygon572"
   transform="translate(-840.72424,-110.51341)" />
<polygon
   class="st3" fill="#1561A0"
   points="1190.6,918.4 1160.1,918.9 1156.9,909.4 1188.4,908.7 "
   id="polygon574"
   transform="translate(-840.72424,-110.51341)" />
<path
   class="st3" fill="#1561A0"
   d="m 326.57576,828.48659 c 0,0 3.8,3.8 13.6,3.4 9.8,-0.5 14.8,-4.7 14.8,-4.7 0,0 15.1,13 28.6,12.2 13.5,-0.8 33.1,-2.5 38.1,11.6 5,14.1 2.6,25.9 2.6,25.9 l -107.5,-0.1 c 0,0 -1.4,-10 -0.1,-23.3 1.3,-13.3 9.9,-25 9.9,-25 z"
   id="path576"
   inkscape:connector-curvature="0"
    />
<path
   class="st2" fill="#F2F2F2"
   d="m 369.37576,830.98659 c -2,0 -3.5,2 -2.8,3.9 0.8,2.3 1.1,3 0.7,5.7 -0.2,1.5 -0.5,2.7 -0.8,3.6 -0.5,1.7 0.6,3.4 2.4,3.7 l 0.5,0.1 c 1.6,0.3 3.2,-0.8 3.4,-2.4 0.7,-4 1.8,-8.8 -0.8,-13.2 -0.5,-0.8 -1.5,-1.4 -2.6,-1.4 z"
   id="path578"
   inkscape:connector-curvature="0"
   />
<path
   class="st2" fill="#F2F2F2"
   d="m 381.27576,835.08659 c -2,0 -3.5,2 -2.8,3.9 0.8,2.3 1.1,3 0.7,5.7 -0.2,1.5 -0.5,2.7 -0.8,3.6 -0.5,1.7 0.6,3.4 2.4,3.7 l 0.5,0.1 c 1.6,0.3 3.2,-0.8 3.4,-2.4 0.7,-4 1.8,-8.8 -0.8,-13.2 -0.6,-0.8 -1.6,-1.4 -2.6,-1.4 z"
   id="path580"
   inkscape:connector-curvature="0"
   />
<path
   class="st2" fill="#F2F2F2"
   d="m 393.47576,835.58659 c -2,0 -3.5,2 -2.8,3.9 0.8,2.3 1.1,3 0.7,5.7 -0.2,1.5 -0.5,2.7 -0.8,3.6 -0.5,1.7 0.6,3.4 2.4,3.7 l 0.5,0.1 c 1.6,0.3 3.2,-0.8 3.4,-2.4 0.7,-4 1.8,-8.8 -0.8,-13.2 -0.5,-0.8 -1.5,-1.4 -2.6,-1.4 z"
   id="path582"
   inkscape:connector-curvature="0"
   />
<rect
   x="-423.6254"
   y="-888.68768"
   transform="scale(-1)"
   class="st2"
   fill="#F2F2F2"
   width="107.2"
   height="11.9"
   id="rect584"
 />
<path
   class="st4" fill="#22B573"
   d="m 292.57576,515.28659 c -30.5,-35.5 -94.4,1.7 -80.4,46.4 0.3,0.9 0.6,1.8 0.9,2.7 24.1,72.7 40,119.4 40,119.4 l 103.2,-17.3 c 0,0 -14.8,-43.3 -34.5,-92.1 -4.6,-11.7 -17.1,-45.1 -29.2,-59.1 z"
   id="path586"
   inkscape:connector-curvature="0"
   />
<polygon
   class="st5" fill="#1B965B"
   points="1185.7,746 1083.6,764.4 1088.7,779.3 1191.2,760.8 "
   id="polygon588"
   transform="translate(-840.72424,-110.51341)" />
<path
   class="st1" fill="#065082"
   d="m 77.17576,427.98659 -37.2,-55.6 58.6,-39.2 c 15.3,-10.3 36.1,-6.1 46.4,9.2 v 0 c 10.3,15.3 6.1,36.1 -9.2,46.4 z"
   id="path590"
   inkscape:connector-curvature="0"
 />
<path
   class="st4" fill="#22B573"
   d="m 217.07576,602.18659 h -1.4 c -45,0 -81.6,-37 -81.6,-82 v -0.3 h 164.6 v 0.3 c 0,45.1 -36.5,82 -81.6,82 z"
   id="path592"
   inkscape:connector-curvature="0"
   />
<path
   class="st3" fill="#1561A0"
   d="m 298.47576,519.98659 c 0,0 -20.2,18.5 -82.2,18.5 -62,0 -82,-18.5 -82,-18.5 0,0 -3.9,-43.9 -7.9,-64.1 -3.1,-15.3 -16.5,-69.7 -26.4,-95.3 -7.1,-18.4 4.5,-28.9 22.9,-35.8 l 80.4,-30.1 c 13,-4.9 27.7,0.6 34.2,12.9 13.1,24.6 33.8,67.6 45.6,113.9 17,66.6 15.4,98.5 15.4,98.5 z"
   id="path594"
   inkscape:connector-curvature="0"
    />
<path
   class="st1" fill="#065082"
   d="m 131.77576,321.08659 0.7,2.3 c 6.9,19 27.8,28.8 46.7,22.3 v 0 c 19.9,-6.8 30,-28.2 22.9,-47.7 l -0.9,-2.7 z"
   id="path596"
   inkscape:connector-curvature="0"
    />
<path
   class="st0" fill="#F8C09D"
   d="m 175.37576,334.08659 v 0 c -12.6,4.3 -26.4,-2.2 -31,-14.8 l -7.9,-21.7 46.4,-15.9 7.6,20.8 c 4.7,12.9 -2.1,27.1 -15.1,31.6 z"
   id="path598"
   inkscape:connector-curvature="0"
   />
<path
   class="st6" fill="#F6AE8D"
   d="m 140.37576,308.28659 c 8.3,-0.1 16.5,-1.6 24.2,-4.4 7.9,-2.9 15.2,-7.3 21.7,-12.8 l -3.4,-9.3 -46.4,15.9 z"
   id="path600"
   inkscape:connector-curvature="0"
   />
<path
   class="st0" fill="#F8C09D"
   d="m 161.27576,294.98659 c -33.9,12.6 -78,-1.7 -92,-39.5 l -42.2,-113.7 136.3,-50.599996 42.2,113.699996 c 14,37.7 -10.4,77.5 -44.3,90.1 z"
   id="path602"
   inkscape:connector-curvature="0"
   />
<rect
   x="-41.138866"
   y="196.20335"
   transform="rotate(-20.383034)"
   class="st7"
   fill="#333333"
   width="34.200542"
   height="36.800583"
   id="rect604"
   stroke-width="1.00001585"
    />
<circle
   transform="rotate(-20.383034)"
   class="st0" fill="#F8C09D"
   cx="-24.44035"
   cy="230.89088"
   id="ellipse606"
   r="20.700329"
   stroke-width="1.00001585"
    />
<path
   class="st8" fill="#EF937E"
   d="m 54.57576,229.08659 c -1.4,-3.8 0.5,-8 4.3,-9.4 1,-0.4 2.1,-0.5 3.2,-0.4 -1.9,-1.6 -4.6,-2.1 -7.2,-1.2 -3.8,1.4 -5.7,5.6 -4.3,9.4 1,2.7 3.5,4.5 6.2,4.7 -0.9,-0.8 -1.7,-1.8 -2.2,-3.1 z"
   id="path608"
   inkscape:connector-curvature="0"
   style="fill:#ef937e" />
<path
   class="st7" fill="#333333"
   d="m 159.47576,92.586594 6.9,-2.6 c 7.2,-2.7 15.1,1 17.8,8.2 l 23.5,63.199996 -19.8,7.4 z"
   id="path610"
   inkscape:connector-curvature="0"
   />
<path
   class="st8" fill="#EF937E"
   d="m 132.47576,211.28659 5.2,14 c 0.2,0.6 1.2,0.8 1.8,0.6 l 8.3,-3.1 c 2.3,-0.8 2.5,-3.9 0.4,-5.1 l -13.9,-8 c -0.9,-0.5 -2.2,0.5 -1.8,1.6 z"
   id="path612"
   inkscape:connector-curvature="0"
 />
<path
   class="st7"
   fill="#333333"
   d="m 38.47576,136.98659 0.1,0.3 -9.5,3.5 c -10.1,3.7 -15.2,14.8 -11.5,24.9 v 0 l 4.6,12.5 12,32.2 30.9,-10.5 -3.2,-9.5 c -2.1,-6.3 1.2,-13.1 7.5,-15.2 l 91.6,-31.3 c 12,-4.1 18.5,-17.3 14.4,-29.3 0,-0.1 -141,10.2 -136.9,22.4 z"
   id="path614"
   inkscape:connector-curvature="0"
   />
<path
   class="st7"
   fill="#333333"
   d="m 30.57576,141.48659 c -6.8,-14.6 -7.6,-23.9 -0.1,-35.7 4.9,-7.699996 16.1,-13.099996 20.5,-14.499996 2.9,-0.9 6,-1.3 9,-0.8 6.4,1.2 11.8,7.4 12.1,14.099996 2.1,-5.199996 5,-9.999996 8.5,-14.299996 4.5,-5.5 10.4,-10.2 17.4,-10.7 7,-0.5 14.7,4.8 15.2,12 3,-2.9 5.2,-6.7 8,-9.8 4.6,-5 10.9,-8.1 17.6,-8.7 2.5,-0.2 5.1,-0.1 7.5,0.6 5,1.4 9.1,5.2 12,9.7 2.9,4.5 16.7,29.299996 10.4,51.299996 -0.8,2.8 -11.7,4.2 -14.5,4.7 z"
   id="path616"
   inkscape:connector-curvature="0"
   />
<rect
   x="-41.182953"
   y="174.67899"
   transform="rotate(-20.383034)"
   class="st3"
   fill="#1561A0"
   width="179.60284"
   height="24.00038"
   id="rect618"
   stroke-width="1.00001585"
    />
<circle
   transform="rotate(-20.383034)"
   class="st0" fill="#F8C09D"
   cx="120.85796"
   cy="230.80559"
   id="ellipse620"
   r="20.700329"
   stroke-width="1.00001585"
/>
<path
   class="st8" fill="#EF937E"
   d="m 201.97576,173.68659 c -1.3,-3.8 -5.4,-5.9 -9.2,-4.7 -1.1,0.3 -2,0.9 -2.7,1.6 0.5,-2.4 2.3,-4.5 4.9,-5.4 3.8,-1.3 8,0.8 9.2,4.7 0.9,2.8 0.1,5.7 -1.9,7.6 0.1,-1.1 0.1,-2.5 -0.3,-3.8 z"
   id="path622"
   inkscape:connector-curvature="0"
   />
<g
   id="g636"
   transform="translate(-840.72424,-110.51341)">
	<path
   class="st0" fill="#F8C09D"
   d="m 938.1,664.6 -7.8,8.2 25.7,24.5 c 2.3,2.2 5.9,2.1 8,-0.2 v 0 c 2.2,-2.3 2.1,-5.9 -0.2,-8 z"
   id="path624"
   inkscape:connector-curvature="0"
    />
	<path
   class="st0" fill="#F8C09D"
   d="m 946.3,656.1 -7.5,8.5 32.1,28.5 c 2.3,2.1 5.9,1.9 8,-0.5 v 0 c 2.1,-2.3 1.9,-5.9 -0.5,-8 z"
   id="path626"
   inkscape:connector-curvature="0"
/>
	<path
   class="st0" fill="#F8C09D"
   d="m 956.3,651.2 -6.6,9.3 34.9,24.9 c 2.6,1.8 6.1,1.2 7.9,-1.3 v 0 c 1.8,-2.6 1.2,-6.1 -1.3,-7.9 z"
   id="path628"
   inkscape:connector-curvature="0"
   />
	<path
   class="st0" fill="#F8C09D"
   d="m 956.4,641.6 -4.8,10.3 38.9,18 c 2.8,1.3 6.2,0.1 7.5,-2.8 v 0 c 1.3,-2.8 0.1,-6.2 -2.8,-7.5 z"
   id="path630"
   inkscape:connector-curvature="0"
   />
	<path
   class="st0" fill="#F8C09D"
   d="m 951.1,635.6 0.4,11.4 25.8,-0.8 c 3.1,-0.1 5.6,-2.7 5.5,-5.9 v 0 c -0.1,-3.1 -2.7,-5.6 -5.9,-5.5 z"
   id="path632"
   inkscape:connector-curvature="0"
   />
	<path
   class="st0" fill="#F8C09D"
   d="m 958.1,637.4 7.4,5.3 c 1.3,1 1.7,2.8 0.7,4.2 l -23,32.3 c -1,1.3 -2.8,1.7 -4.2,0.7 l -7.4,-5.3 c -5.1,-3.6 -6.3,-10.7 -2.7,-15.8 l 13.3,-18.7 c 3.7,-5.2 10.8,-6.4 15.9,-2.7 z"
   id="path634"
   inkscape:connector-curvature="0"
   />
</g>
<ellipse
   transform="rotate(-19.487708)"
   class="st7"
   fill="#333333"
   cx="26.359253"
   cy="234.17676"
   rx="4.9999309"
   ry="8.7998781"
   id="ellipse638"
   stroke-width="0.99998611"
    />
<ellipse
   transform="rotate(-19.487708)"
   class="st7"
   fill="#333333"
   cx="89.894775"
   cy="234.15698"
   rx="4.9999309"
   ry="8.7998781"
   id="ellipse640"
   stroke-width="0.99998611" />
<path
   class="st9"
   fill="none" stroke="#EF937E" stroke-width="5" stroke-linecap="round" stroke-miterlimit"10"
   d="m 134.37576,247.28659 c 2.8,7.8 11.4,11.9 19.2,9.2 v 0 c 7.8,-2.8 11.9,-11.4 9.2,-19.2"
   id="path642"
   inkscape:connector-curvature="0"
    />
</svg>