<?xml version="1.0" encoding="UTF-8" standalone="no"?>
<!-- Generator: Adobe Illustrator 19.2.0, SVG Export Plug-In . SVG Version: 6.00 Build 0)  -->

<svg
   xmlns:dc="http://purl.org/dc/elements/1.1/"
   xmlns:cc="http://creativecommons.org/ns#"
   xmlns:rdf="http://www.w3.org/1999/02/22-rdf-syntax-ns#"
   xmlns:svg="http://www.w3.org/2000/svg"
   xmlns="http://www.w3.org/2000/svg"
   xmlns:sodipodi="http://sodipodi.sourceforge.net/DTD/sodipodi-0.dtd"
   xmlns:inkscape="http://www.inkscape.org/namespaces/inkscape"
   version="1.1"
   id="Layer_1"
   x="0px"
   y="0px"
   viewBox="0 0 916.70001 904.7041"
   xml:space="preserve"
   sodipodi:docname="Man_on_a_Treadmill_Cartoon.svg"
   width="916.70001"
   height="904.7041"
   inkscape:version="0.92.3 (2405546, 2018-03-11)"><metadata
   id="metadata963"><rdf:RDF><cc:Work
       rdf:about=""><dc:format>image/svg+xml</dc:format><dc:type
         rdf:resource="http://purl.org/dc/dcmitype/StillImage" /></cc:Work></rdf:RDF></metadata><defs
   id="defs961" /><sodipodi:namedview
   pagecolor="#ffffff"
   bordercolor="#666666"
   borderopacity="1"
   objecttolerance="10"
   gridtolerance="10"
   guidetolerance="10"
   inkscape:pageopacity="0"
   inkscape:pageshadow="2"
   inkscape:window-width="640"
   inkscape:window-height="480"
   id="namedview959"
   showgrid="false"
   inkscape:zoom="0.16614583"
   inkscape:cx="458.3"
   inkscape:cy="452.4"
   inkscape:window-x="0"
   inkscape:window-y="30"
   inkscape:window-maximized="0"
   inkscape:current-layer="Layer_1" />
<style
   type="text/css"
   id="style808">
	.st0{fill:#808080;}
	.st1{fill:#4D4D4D;}
	.st2{fill:#999999;}
	.st3{fill:#CCCCCC;}
	.st4{fill:#E6E6E6;}
	.st5{fill:#666666;}
	.st6{fill:#FFFFFF;}
	.st7{fill:#F2F2F2;}
	.st8{fill:#F8C09D;}
	.st9{fill:#1B965B;}
	.st10{fill:#14844C;}
	.st11{fill:#1561A0;}
	.st12{fill:#22B573;}
	.st13{fill:#065082;}
	.st14{fill:#F6AE8D;}
	.st15{fill:#333333;}
	.st16{fill:#EF937E;}
</style>
<g
   id="g956"
   transform="translate(-501.7,-87.695879)">
	<path
   class="st0"
   d="m 599.6,743.7 h 759.8 v 74.5 H 568.9 c -13.4,0 -22,-14.3 -15.7,-26.2 l 16.3,-30.3 c 6,-11.1 17.6,-18 30.1,-18 z"
   id="path810"
   inkscape:connector-curvature="0"
   style="fill:#808080" />
	<path
   class="st1"
   d="m 1340.4,899 -749,0.9 3.3,-99.7 c 0.4,-11.7 10,-21 21.6,-21 l 728.1,-0.9 z"
   id="path812"
   inkscape:connector-curvature="0"
   style="fill:#4d4d4d" />
	<path
   class="st1"
   d="m 662.8,991.3 h -18 c -8.3,0 -15,-6.7 -15,-15 v -49.9 c 0,-2.5 2.1,-4.6 4.6,-4.6 h 38.9 c 2.5,0 4.6,2.1 4.6,4.6 v 49.9 c -0.1,8.3 -6.8,15 -15.1,15 z"
   id="path814"
   inkscape:connector-curvature="0"
   style="fill:#4d4d4d" />
	<path
   class="st0"
   d="m 594.3,873.8 h 759.8 v 74.5 H 563.5 c -13.4,0 -22,-14.3 -15.7,-26.2 l 16.3,-30.3 c 6,-11.1 17.6,-18 30.2,-18 z"
   id="path816"
   inkscape:connector-curvature="0"
   style="fill:#808080" />
	<path
   class="st2"
   d="M 1354.1,948.3 H 621.3 l 17,-26 c 8.1,-12.4 22,-20 36.9,-20 h 679 v 46 z"
   id="path818"
   inkscape:connector-curvature="0"
   style="fill:#999999" />
	<path
   class="st1"
   d="m 1354.1,991.3 h -242 c -23.7,0 -43,-19.3 -43,-43 v 0 h 285 z"
   id="path820"
   inkscape:connector-curvature="0"
   style="fill:#4d4d4d" />
	<polygon
   class="st3"
   points="1209.6,442.6 1275.9,743.7 1346.1,743.7 1279.8,442.6 "
   id="polygon822"
   style="fill:#cccccc" />
	<path
   class="st4"
   d="m 1399.8,992.4 h -31.7 l -124,-549.8 h 50.2 l 119.9,531.8 c 2.1,9.2 -4.9,18 -14.4,18 z"
   id="path824"
   inkscape:connector-curvature="0"
   style="fill:#e6e6e6" />
	<path
   class="st5"
   d="m 1193.4,468 c -5.5,0 -8.6,-6.1 -5.5,-10.6 L 1315,276.5 c 2.4,-3.5 6.4,-5.6 10.6,-5.6 h 23.1 c 5.2,0 8.3,5.8 5.5,10.1 l -121.1,178.9 c -3.4,5 -9.1,8.1 -15.2,8.1 z"
   id="path826"
   inkscape:connector-curvature="0"
   style="fill:#666666" />
	<path
   class="st4"
   d="m 1294.3,442.6 56.9,-85.2 c 4.2,-6.3 5.4,-14 3.5,-21.3 l -10.7,-39 -99.9,145.6 h 50.2 z"
   id="path828"
   inkscape:connector-curvature="0"
   style="fill:#e6e6e6" />
	<path
   class="st3"
   d="m 1266.5,416.4 h -139.6 c -4.6,0 -8.9,1.8 -12.2,5 l -38.9,38.8 c -11.2,6.1 -6.8,17.9 0.1,24.8 v 0 c 6.8,6.8 17.9,6.8 24.7,-0.1 l 33.4,-33.6 h 132.4 v -34.9 z"
   id="path830"
   inkscape:connector-curvature="0"
   style="fill:#cccccc" />
	<path
   class="st4"
   d="m 1296.5,416.4 h -139.6 c -4.6,0 -8.9,1.8 -12.2,5 l -38.9,38.8 c -6.8,6.9 -6.8,17.9 0.1,24.8 v 0 c 6.8,6.8 17.9,6.8 24.7,-0.1 l 33.4,-33.6 h 132.4 v -34.9 z"
   id="path832"
   inkscape:connector-curvature="0"
   style="fill:#e6e6e6" />
	<path
   class="st6"
   d="M 804.8,223.8"
   id="path834"
   inkscape:connector-curvature="0"
   style="fill:#ffffff" />
	<g
   id="g944">
		<path
   class="st7"
   d="m 530.1,635.6 -17.5,106.3 -10.9,-1.1 c 0,0 0.6,-25.2 4.8,-55.7 4.5,-32.7 11.8,-51.8 11.8,-51.8 z"
   id="path836"
   inkscape:connector-curvature="0"
   style="fill:#f2f2f2" />
		<path
   class="st8"
   d="m 586.7,657.8 -11.4,24.6 c 0,0 129.5,57 168,-16 33.1,-62.7 67.5,-135 67.5,-135 l -37.6,-16.3 c 0,0 -35.9,62.3 -72,127.5 -19.6,35.2 -114.5,15.2 -114.5,15.2 z"
   id="path838"
   inkscape:connector-curvature="0"
   style="fill:#f8c09d" />
		<path
   class="st9"
   d="m 765.7,508.2 c 33.3,-26.3 80,7.8 65.1,47.5 -0.3,0.7 -0.5,1.4 -0.8,2.1 -26.9,70.6 -51.1,103.7 -51.1,103.7 L 683.3,619 c 0,0 25.5,-58.3 54.2,-86.6 7.1,-7.1 17.2,-15.5 28.2,-24.2 z"
   id="path840"
   inkscape:connector-curvature="0"
   style="fill:#1b965b" />
		<polygon
   class="st10"
   points="787.2,648.6 690.5,603.8 697.2,590.8 794.2,636.5 "
   id="polygon842"
   style="fill:#14844c" />
		<polygon
   class="st7"
   points="563.2,682.7 568.2,654.8 613.2,661.9 606.9,693.8 "
   id="polygon844"
   style="fill:#f2f2f2" />
		<polygon
   class="st11"
   points="588.5,688.8 594.8,659 603.8,660.4 597.5,691.2 "
   id="polygon846"
   style="fill:#1561a0" />
		<path
   class="st8"
   d="m 962.1,782.3 25.6,-12.4 c 0,0 -21.6,-59 -47.9,-117.9 C 903.1,569.7 788.3,538.4 788.3,538.4 l -16.6,40 c 0,0 81.5,34 121.6,87.8 39.3,52.5 68.8,116.1 68.8,116.1 z"
   id="path848"
   inkscape:connector-curvature="0"
   style="fill:#f8c09d" />
		<path
   class="st12"
   d="m 808,509.9 c -44.1,-15.7 -78.5,40.4 -44.2,72.3 0.7,0.6 1.4,1.3 2.1,1.9 56.9,51.1 86.9,77.3 86.9,77.3 l 81,-66.2 c 0,0 -45.8,-46.5 -81,-66.2 -10.9,-6.2 -27.4,-12.9 -44.8,-19.1 z"
   id="path850"
   inkscape:connector-curvature="0"
   style="fill:#22b573" />
		<polygon
   class="st9"
   points="910.1,572.6 829.1,640.5 840.9,651 921.6,583.3 "
   id="polygon852"
   style="fill:#1b965b" />
		<polygon
   class="st7"
   points="990.7,775.9 965.1,788.3 944.5,747.7 974,734.1 "
   id="polygon854"
   style="fill:#f2f2f2" />
		<polygon
   class="st11"
   points="980.8,751.9 953,764.3 948.8,756.2 977.5,743.2 "
   id="polygon856"
   style="fill:#1561a0" />
		<path
   class="st12"
   d="m 785.8,589.7 -1.3,-0.2 c -41.1,-6.7 -68.8,-45.9 -62.1,-87 v -0.2 l 150,24.6 v 0.2 c -6.7,41.1 -45.5,69.4 -86.6,62.6 z"
   id="path858"
   inkscape:connector-curvature="0"
   style="fill:#22b573" />
		<path
   class="st7"
   d="m 972,830.4 96.4,-48.1 5.5,9.5 c 0,0 -20.8,14.3 -47.9,28.8 -29.1,15.5 -48.9,20.8 -48.9,20.8 z"
   id="path860"
   inkscape:connector-curvature="0"
   style="fill:#f2f2f2" />
		<path
   class="st11"
   d="m 962.1,782.3 c 0,0 5,2.1 13.8,-2.2 8.8,-4.3 11.8,-10.1 11.8,-10.1 0,0 19,6 31.1,0 12.1,-6 29.5,-15.3 39.6,-4.3 10.1,11 9.9,16.6 9.9,16.6 0,0 -21.3,14.8 -47.6,27.9 -25.1,12.5 -48.8,20.2 -48.8,20.2 0,0 -5.2,-8.7 -9.3,-21.4 -3.9,-12.7 -0.5,-26.7 -0.5,-26.7 z"
   id="path862"
   inkscape:connector-curvature="0"
   style="fill:#1561a0" />
		<path
   class="st7"
   d="m 999.4,768.1 c -1.9,0.8 -2.4,3.2 -1.1,4.7 1.6,1.8 2.1,2.3 2.8,5 0.4,1.5 0.6,2.7 0.7,3.6 0.2,1.8 1.9,2.9 3.6,2.5 l 0.5,-0.1 c 1.6,-0.4 2.6,-2 2.2,-3.6 -0.9,-3.9 -1.8,-8.8 -5.9,-11.8 -0.7,-0.6 -1.8,-0.7 -2.8,-0.3 z"
   id="path864"
   inkscape:connector-curvature="0"
   style="fill:#f2f2f2" />
		<path
   class="st7"
   d="m 1011.9,767.2 c -1.9,0.8 -2.4,3.2 -1.1,4.7 1.6,1.8 2.1,2.3 2.8,5 0.4,1.5 0.6,2.7 0.7,3.6 0.2,1.8 1.9,2.9 3.6,2.5 l 0.5,-0.1 c 1.6,-0.4 2.6,-2 2.2,-3.6 -0.9,-3.9 -1.8,-8.8 -5.9,-11.8 -0.7,-0.6 -1.9,-0.7 -2.8,-0.3 z"
   id="path866"
   inkscape:connector-curvature="0"
   style="fill:#f2f2f2" />
		<path
   class="st7"
   d="m 1023.4,762.9 c -1.9,0.8 -2.4,3.2 -1.1,4.7 1.6,1.8 2.1,2.3 2.8,5 0.4,1.5 0.6,2.7 0.7,3.6 0.2,1.8 1.9,2.9 3.6,2.5 l 0.5,-0.1 c 1.6,-0.4 2.6,-2 2.2,-3.6 -0.9,-3.9 -1.8,-8.8 -5.9,-11.8 -0.7,-0.6 -1.9,-0.7 -2.8,-0.3 z"
   id="path868"
   inkscape:connector-curvature="0"
   style="fill:#f2f2f2" />
		<path
   class="st11"
   d="m 574.8,655.9 c 0,0 -4.6,2.8 -6.3,12.5 -1.7,9.7 1.3,15.5 1.3,15.5 0,0 -16,11.9 -18.3,25.2 -2.3,13.4 -4.9,32.9 -19.8,34.6 -14.9,1.7 -19.3,-1.7 -19.3,-1.7 0,0 0.5,-25.9 5.3,-54.9 4.6,-27.7 12.2,-51.4 12.2,-51.4 0,0 10.1,0.9 22.8,5 12.8,4.2 22.1,15.2 22.1,15.2 z"
   id="path870"
   inkscape:connector-curvature="0"
   style="fill:#1561a0" />
		<path
   class="st7"
   d="m 564.5,694.4 c 0.4,-2 -1.2,-3.8 -3.2,-3.6 -2.4,0.3 -3.1,0.4 -5.7,-0.6 -1.4,-0.6 -2.5,-1.1 -3.4,-1.6 -1.5,-0.9 -3.5,-0.2 -4.2,1.5 l -0.2,0.5 c -0.6,1.5 0.1,3.3 1.6,3.9 3.7,1.5 8.2,3.7 13,2.1 1.1,-0.4 1.9,-1.2 2.1,-2.2 z"
   id="path872"
   inkscape:connector-curvature="0"
   style="fill:#f2f2f2" />
		<path
   class="st7"
   d="m 557.9,705 c 0.4,-2 -1.2,-3.8 -3.2,-3.6 -2.4,0.3 -3.1,0.4 -5.7,-0.6 -1.4,-0.6 -2.5,-1.1 -3.4,-1.6 -1.5,-0.9 -3.5,-0.2 -4.2,1.5 l -0.2,0.5 c -0.6,1.5 0.1,3.3 1.6,3.9 3.7,1.5 8.2,3.7 13,2.1 1.1,-0.3 1.9,-1.2 2.1,-2.2 z"
   id="path874"
   inkscape:connector-curvature="0"
   style="fill:#f2f2f2" />
		<path
   class="st7"
   d="m 554.7,716.8 c 0.4,-2 -1.2,-3.8 -3.2,-3.6 -2.4,0.3 -3.1,0.4 -5.7,-0.6 -1.4,-0.6 -2.5,-1.1 -3.4,-1.6 -1.5,-0.9 -3.5,-0.2 -4.2,1.5 L 538,713 c -0.6,1.5 0.1,3.3 1.6,3.9 3.7,1.5 8.2,3.7 13,2.1 1.1,-0.3 1.8,-1.1 2.1,-2.2 z"
   id="path876"
   inkscape:connector-curvature="0"
   style="fill:#f2f2f2" />
		<path
   class="st8"
   d="m 852.4,341.2 v 0 c -5.2,8.7 -2.4,20.1 6.3,25.3 0,0 21.4,40.8 76,72.7 54.7,31.9 88.6,26.2 88.6,26.2 8.7,5.2 20.1,2.4 25.3,-6.3 v 0 c 5.2,-8.7 2.4,-20.1 -6.3,-25.3 0,0 -34.2,6.5 -90.3,-27.2 -56.1,-33.7 -74.4,-71.7 -74.4,-71.7 -8.6,-5.3 -19.9,-2.4 -25.2,6.3 z"
   id="path878"
   inkscape:connector-curvature="0"
   style="fill:#f8c09d" />
		<path
   class="st13"
   d="M 899.5,441 944,391.6 c 0,0 -52.7,-49.1 -66.7,-60.7 -20.4,-17 -56.9,6.4 -38.4,40.1 11.2,20.4 60.6,70 60.6,70 z"
   id="path880"
   inkscape:connector-curvature="0"
   style="fill:#065082" />
		<g
   id="g894">
			<path
   class="st8"
   d="m 1036.2,461.2 -2.5,11.1 34.6,7.9 c 3.1,0.7 6.1,-1.2 6.8,-4.3 v 0 c 0.7,-3.1 -1.2,-6.1 -4.3,-6.8 z"
   id="path882"
   inkscape:connector-curvature="0"
   style="fill:#f8c09d" />
			<path
   class="st8"
   d="m 1038.9,449.8 -2.1,11.2 42.1,8.1 c 3.1,0.6 6.1,-1.4 6.7,-4.5 v 0 c 0.6,-3.1 -1.4,-6.1 -4.5,-6.7 z"
   id="path884"
   inkscape:connector-curvature="0"
   style="fill:#f8c09d" />
			<path
   class="st8"
   d="m 1045,440.4 -0.9,11.3 42.8,3.5 c 3.1,0.3 5.9,-2.1 6.1,-5.2 v 0 c 0.3,-3.1 -2.1,-5.9 -5.2,-6.1 z"
   id="path886"
   inkscape:connector-curvature="0"
   style="fill:#f8c09d" />
			<path
   class="st8"
   d="m 1040.2,432.1 1.2,11.3 42.7,-4.4 c 3.1,-0.3 5.4,-3.1 5.1,-6.2 v 0 c -0.3,-3.1 -3.1,-5.4 -6.2,-5.1 z"
   id="path888"
   inkscape:connector-curvature="0"
   style="fill:#f8c09d" />
			<path
   class="st8"
   d="m 1032.6,429.6 6.1,9.6 21.8,-13.9 c 2.6,-1.7 3.4,-5.2 1.7,-7.8 v 0 c -1.7,-2.6 -5.2,-3.4 -7.8,-1.7 z"
   id="path890"
   inkscape:connector-curvature="0"
   style="fill:#f8c09d" />
			<path
   class="st8"
   d="m 1039.4,427.6 9,0.7 c 1.7,0.1 2.9,1.6 2.7,3.2 l -3.3,39.5 c -0.1,1.7 -1.6,2.9 -3.2,2.7 l -9,-0.7 c -6.2,-0.5 -10.9,-6 -10.4,-12.2 l 1.9,-22.9 c 0.6,-6.2 6.1,-10.8 12.3,-10.3 z"
   id="path892"
   inkscape:connector-curvature="0"
   style="fill:#f8c09d" />
		</g>
		<path
   class="st11"
   d="m 838.1,310.9 v 0 c 37.5,6.1 50.8,35.3 48.9,89.2 -1.1,29.4 -7,30.6 -14.5,126.8 -0.1,1.4 -24.2,15.9 -78.2,5.7 -54,-10.2 -71.8,-30.3 -71.8,-30.3 l 1,-11.7 c 7,-62.4 28.9,-127 51.2,-161.5 10.9,-16.9 44,-21.3 63.4,-18.2 z"
   id="path896"
   inkscape:connector-curvature="0"
   style="fill:#1561a0" />
		<path
   class="st13"
   d="M 879.2,341.8 C 871.7,324.5 858,314.3 838,311 v 0 c -8,-1.3 -17.9,-1.3 -27.8,0.2 l -0.3,12.8 c -0.5,20.1 15.7,37.2 35.7,37.7 l 0.4,0.1 v 0 c 14.4,0 27,-7.9 33.2,-20 z"
   id="path898"
   inkscape:connector-curvature="0"
   style="fill:#065082" />
		<path
   class="st8"
   d="m 624.6,460.3 v 0 c 5.9,8.3 17.4,10.3 25.7,4.5 0,0 27.2,-50.6 56.8,-71.4 29.6,-20.8 94.9,-35.3 94.9,-35.3 8.3,-5.9 10.3,-17.4 4.5,-25.7 v 0 c -5.9,-8.3 -17.4,-10.3 -25.7,-4.5 0,0 -64.2,13.6 -94.3,34.8 -30.1,21.1 -57.5,71.9 -57.5,71.9 -8.2,5.9 -10.3,17.4 -4.4,25.7 z"
   id="path900"
   inkscape:connector-curvature="0"
   style="fill:#f8c09d" />
		<g
   id="g914">
			<path
   class="st8"
   d="m 621.9,452.5 -7.2,-8.8 -27.5,22.3 c -2.4,2 -2.8,5.6 -0.8,8 v 0 c 2,2.4 5.6,2.8 8,0.8 z"
   id="path902"
   inkscape:connector-curvature="0"
   style="fill:#f8c09d" />
			<path
   class="st8"
   d="m 629.3,461.7 -7.5,-8.6 -32.4,28.2 c -2.4,2.1 -2.6,5.6 -0.6,8 v 0 c 2.1,2.4 5.6,2.6 8,0.6 z"
   id="path904"
   inkscape:connector-curvature="0"
   style="fill:#f8c09d" />
			<path
   class="st8"
   d="m 632.9,472.2 -8.3,-7.7 -29.2,31.5 c -2.1,2.3 -2,5.9 0.3,8 v 0 c 2.3,2.1 5.9,2 8,-0.3 z"
   id="path906"
   inkscape:connector-curvature="0"
   style="fill:#f8c09d" />
			<path
   class="st8"
   d="m 642.3,473.6 -9.6,-6.1 -22.9,36.3 c -1.7,2.7 -0.9,6.2 1.8,7.8 v 0 c 2.7,1.7 6.2,0.9 7.8,-1.8 z"
   id="path908"
   inkscape:connector-curvature="0"
   style="fill:#f8c09d" />
			<path
   class="st8"
   d="m 649,469.1 -11.3,-1.1 -2.5,25.7 c -0.3,3.1 2,5.9 5.1,6.2 v 0 c 3.1,0.3 5.9,-2 6.2,-5.1 z"
   id="path910"
   inkscape:connector-curvature="0"
   style="fill:#f8c09d" />
			<path
   class="st8"
   d="m 646.4,475.8 -6.2,6.6 c -1.1,1.2 -3,1.3 -4.2,0.2 l -29.1,-27 c -1.2,-1.1 -1.3,-3 -0.2,-4.2 l 6.2,-6.6 c 4.3,-4.6 11.4,-4.9 16,-0.6 l 16.9,15.6 c 4.6,4.2 4.8,11.4 0.6,16 z"
   id="path912"
   inkscape:connector-curvature="0"
   style="fill:#f8c09d" />
		</g>
		<path
   class="st13"
   d="m 706.8,340.6 25.1,61.5 c 0,0 50.6,-18.5 67.1,-26.1 24.2,-11 29.3,-51.5 -2.8,-59.6 -22.6,-5.6 -89.4,24.2 -89.4,24.2 z"
   id="path916"
   inkscape:connector-curvature="0"
   style="fill:#065082" />
		<path
   class="st8"
   d="m 871.1,326.2 c -0.4,13.4 -11.5,24.6 -24.9,23.6 v 0 L 846,350 c -13.4,-0.4 -24.2,-11.6 -23.8,-25 l 0.6,-21.5 49,1.3 z"
   id="path918"
   inkscape:connector-curvature="0"
   style="fill:#f8c09d" />
		<path
   class="st14"
   d="m 822.2,319.5 c 9.4,4.3 19.3,6.8 28.7,7.1 6.6,0.2 13.4,-0.7 20.2,-2.6 l 0.4,-15.5 -49,-1.3 z"
   id="path920"
   inkscape:connector-curvature="0"
   style="fill:#f6ae8d" />
		<path
   class="st8"
   d="M 848.4,315.5 C 817,314.7 780,286.2 781.1,247.8 l 3.1,-115.6 138.6,3.7 -3.1,115.6 c -1.1,38.4 -23.7,65.3 -71.3,64 z"
   id="path922"
   inkscape:connector-curvature="0"
   style="fill:#f8c09d" />
		
			<rect
   x="766"
   y="183.5"
   transform="matrix(0.9996,0.02704189,-0.02704189,0.9996,5.7226,-21.0828)"
   class="st15"
   width="32.599998"
   height="35.099998"
   id="rect924"
   style="fill:#333333" />
		
			<circle
   transform="matrix(0.02704189,-0.9996,0.9996,0.02704189,543.9393,991.9986)"
   class="st8"
   cx="781.59998"
   cy="216.60001"
   id="ellipse926"
   r="19.700001"
   style="fill:#f8c09d" />
		<path
   class="st16"
   d="m 777.5,219.2 c 0.1,-3.9 3.3,-6.9 7.2,-6.8 1.1,0 2.1,0.3 3,0.8 -1.2,-2.1 -3.4,-3.5 -5.9,-3.6 -3.9,-0.1 -7.1,2.9 -7.2,6.8 -0.1,2.8 1.5,5.2 3.8,6.4 -0.6,-1.1 -0.9,-2.3 -0.9,-3.6 z"
   id="path928"
   inkscape:connector-curvature="0"
   style="fill:#ef937e" />
		<path
   class="st15"
   d="m 795.7,128.9 v 0.3 l -8.6,-0.2 c -10.5,-0.3 -19.3,7.8 -19.6,18.3 v -0.2 l -0.7,26.9 -0.6,22.1 32.6,0.9 0.3,-10 c 0.2,-6.7 5.5,-11.8 12.2,-11.7 l 97,2.6 c 12.7,0.3 23.3,-9.8 23.7,-22.5 l 1.2,-46.2 -113.5,-3.1 c -12.8,-0.2 -23.6,10.1 -24,22.8 z"
   id="path930"
   inkscape:connector-curvature="0"
   style="fill:#333333" />
		<path
   class="st15"
   d="m 795.7,128.9 c -1.9,-15.9 0.3,-25 11.1,-33.9 7,-5.7 19.4,-7.4 24,-7.3 3,0.1 6.1,0.6 8.8,2.1 5.7,3.1 8.8,10.7 7.1,17.2 3.6,-4.3 7.9,-8 12.6,-10.9 6,-3.8 13.1,-6.4 19.9,-4.7 6.8,1.7 12.5,9.1 10.6,16.2 3.8,-1.9 7,-4.7 10.7,-6.8 5.9,-3.3 12.9,-4.3 19.4,-2.8 2.4,0.6 4.8,1.5 6.9,2.9 4.3,2.9 7,7.8 8.3,13 1.3,5.2 6.7,33.1 -6.2,52 -1.6,2.4 -12.4,0.3 -15.2,-0.1 z"
   id="path932"
   inkscape:connector-curvature="0"
   style="fill:#333333" />
		<rect
   x="767"
   y="161.8"
   class="st11"
   width="154"
   height="24"
   id="rect934"
   style="fill:#1561a0" />
		
			<ellipse
   transform="matrix(0.3619,-0.9322,0.9322,0.3619,312.6826,995.3926)"
   class="st16"
   cx="883.5"
   cy="269.29999"
   rx="10.3"
   ry="6.4000001"
   id="ellipse936"
   style="fill:#ef937e" />
		<path
   class="st16"
   d="m 880.5,229.8 -0.4,14.3 c 0,0.6 0.8,1.2 1.4,1.2 l 8.4,0.2 c 2.3,0.1 3.6,-2.6 2.2,-4.4 l -9.4,-12 c -0.7,-0.8 -2.2,-0.4 -2.2,0.7 z"
   id="path938"
   inkscape:connector-curvature="0"
   style="fill:#ef937e" />
		
			<ellipse
   transform="matrix(0.02704189,-0.9996,0.9996,0.02704189,606.473,1064.696)"
   class="st15"
   cx="850.20001"
   cy="220.8"
   rx="8"
   ry="4.5"
   id="ellipse940"
   style="fill:#333333" />
		
			<ellipse
   transform="matrix(0.02704189,-0.9996,0.9996,0.02704189,660.4879,1123.2814)"
   class="st15"
   cx="907.29999"
   cy="222.3"
   rx="8"
   ry="4.5"
   id="ellipse942"
   style="fill:#333333" />
	</g>
	<path
   class="st5"
   d="m 1403.6,991.4 h -145 v -2.9 c 0,-66.5 53.9,-120.4 120.4,-120.4 h 24.7 c 8.1,0 14.7,6.6 14.7,14.7 v 93.8 c -0.1,8.2 -6.7,14.8 -14.8,14.8 z"
   id="path946"
   inkscape:connector-curvature="0"
   style="fill:#666666" />
	<path
   class="st1"
   d="m 1403.6,991.4 h -125 v 0 c 0,-58.6 47.5,-106 106,-106 h 33.7 v 91.3 c 0,8.1 -6.6,14.7 -14.7,14.7 z"
   id="path948"
   inkscape:connector-curvature="0"
   style="fill:#4d4d4d" />
	<circle
   class="st0"
   cx="1386.8"
   cy="961.90002"
   r="13.3"
   id="circle950"
   style="fill:#808080" />
	<path
   class="st6"
   d="m 808.1,228.3 c 8.9,1.2 8,-21.9 8,-21.9 0,0 -16.9,20.8 -8,21.9"
   id="path952"
   inkscape:connector-curvature="0"
   style="fill:#ffffff" />
	<path
   class="st6"
   d="m 810.2,197.5 c 0,0 -15.5,7.8 -9.4,11.3 6.1,3.5 9.4,-11.3 9.4,-11.3 z"
   id="path954"
   inkscape:connector-curvature="0"
   style="fill:#ffffff" />
</g>
</svg>